<?xml version="1.0" encoding="utf-8" ?><svg xmlns="http://www.w3.org/2000/svg" xmlns:xlink="http://www.w3.org/1999/xlink" width="1024" height="1024" viewBox="0 0 1024 1024"><path fill="white" d="M0 0L1024 0L1024 1024L0 1024L0 0Z"/><path fill="#20496A" d="M93.9267 103.119L360.856 103.087L482.627 103.15L637.727 103.017C623.09 148.47 608.047 193.792 592.6 238.976C581.406 271.084 571.097 304.164 559.961 336.321C554.774 351.301 549.575 368.496 543.959 383.116C557.369 383.039 571.972 382.7 585.328 383.054C599.831 382.721 615.109 382.991 629.658 383.022L704.191 383.081L847.008 383.166C873.657 383.125 903.728 382.349 929.995 383.186L929.987 538.381L929.95 590.064C929.939 598.38 930.193 608.145 929.863 616.285C930.224 636.907 929.702 657.65 930.043 678.256C930.14 694.184 930.333 710.625 930.106 726.519L930.012 920.126C926.814 920.599 916.735 920.365 913.257 920.358L878.414 920.311L753.978 920.364L322.499 920.448C323.87 916.171 326.171 910.68 327.757 906.311L340.327 871.941L377.673 770.385C390.389 734.872 403.335 699.442 416.512 664.097C424.155 643.155 432.143 619.915 440.589 599.505L93.5256 599.559L93.9267 103.119Z"/><path fill="#31244C" d="M824.287 643.127C821.892 643.09 820.963 644.325 819.176 642.751C816.557 632.924 821.249 635.038 821.849 632.198C820.023 629.475 818.634 626.673 822.013 624.489C823.708 625.908 825.472 628.187 827.204 628.618L827.364 628.19C825.672 627.003 823.793 626.173 823.941 624.008C827.444 620.093 837.952 618.171 842.729 614.104L842.735 613.629C842.755 612.373 842.823 609.397 843.576 608.519C847.014 604.507 855.392 601.621 859.064 598.032C859.084 596.468 857.782 596.008 856.201 594.338L856.507 593.819C857.222 594.749 856.941 594.47 857.954 595.187C859.729 593.293 859.514 594.093 859.53 592.008L859.777 593.092L859.778 592.16C857.713 591.606 856.509 591.735 856.554 589.477C858.762 587.861 856.853 589.962 859.096 588.769C858.231 583.672 859.242 585.862 862.82 580.661L862.587 580.158L861.035 581.484L860.632 581.231C864.219 575.004 881.735 575.368 888.552 575.621C901.27 576.094 920.955 587.464 929.396 595.701C929.35 600.148 929.034 612.485 929.863 616.285C930.224 636.907 929.702 657.65 930.043 678.256C930.14 694.184 930.333 710.625 930.106 726.519L930.012 920.126C926.879 919.662 919.115 919.82 915.662 919.821L889.958 919.85L800.443 919.887C797.049 886.472 803.156 857.496 808.048 824.67C811.319 802.724 814.682 779.847 819.695 758.206C806.899 749.756 796.72 738.52 785.156 728.767C773.605 719.026 760.626 714.587 749.255 704.311C741.21 697.042 737.506 688.127 727.85 682.953C724.859 674.837 727.66 668.694 724.898 661.077C723.686 657.735 718.931 652.999 716.557 650.068C713.921 646.791 711.723 643.185 710.019 639.34L709.782 638.79C710.34 634.752 710.077 625.021 711.076 623.329C721.813 612.445 741.681 601.287 757.395 604.387C759.906 606.851 767.523 614.118 767.369 616.741C766.912 624.556 771.307 625.283 773.251 630.875C773.007 633.436 772.258 635.009 773.03 636.897C774.479 637.233 774.847 637.229 776.296 637.312C777.209 638.39 777.291 638.91 777.792 640.235C781.856 643.678 784.121 639.48 784.633 644.797C785.623 645.291 785.531 645.199 786.509 645.149C789.19 645.011 793.938 648.861 795.592 650.696C797.356 652.653 800.171 656.036 799.717 658.791C799.572 659.666 799.44 660.647 799.266 661.546C802.005 662.266 804.857 662.953 807.529 663.863L807.82 663.318C811.621 656.046 810.123 653.558 817.402 648.235C821.48 643.796 821.357 645.786 824.287 643.127Z"/><path fill="#015B6A" d="M902.798 697.783C904.329 696.602 906.299 694.484 907.597 693.592C915.051 688.464 922.512 683.253 930.043 678.256C930.14 694.184 930.333 710.625 930.106 726.519C927.791 724.334 925.67 720.378 923.23 717.947C912.977 707.735 901.077 698.876 886.721 695.554C883.767 694.871 880.772 694.682 878.095 693.209L878.39 692.939C886.673 695.491 892.107 696.628 900.831 699.731C905.296 692.975 896.181 689.84 891.112 688.342L890.495 688.165C894.256 689.124 897.709 689.117 900.838 691.332C901.511 693.477 902.164 695.627 902.798 697.783Z"/><path fill="#0D2053" d="M824.287 643.127C828.084 649.15 827.461 650.432 822.679 655.359L817.402 648.235C821.48 643.796 821.357 645.786 824.287 643.127Z"/><path fill="#0D2053" d="M893.196 633.847C895.377 634.271 896.593 635.18 898.042 636.75C898.591 638.743 898.588 637.768 898.019 639.783L897.638 639.505L896.344 640.362C895.289 636.341 896.895 637.154 893.196 633.847Z"/><defs><linearGradient id="gradient_0" gradientUnits="userSpaceOnUse" x1="633.49939" y1="449.5285" x2="576.02899" y2="386.67368"><stop offset="0" stop-color="#074465"/><stop offset="1" stop-color="#077D85"/></linearGradient></defs><path fill="url(#gradient_0)" d="M585.328 383.054C599.831 382.721 615.109 382.991 629.658 383.022L704.191 383.081L707.293 384.175C681.435 384.124 650.837 383.529 625.366 384.406C623.783 387.784 625.387 394.247 624.002 399.029C623.158 401.943 622.927 413.253 623.015 416.509C627.757 417.556 651.105 415.438 657.546 415.824C658.509 415.881 663.895 415.558 664.559 415.817C668.443 417.573 671.259 421.668 673.622 425.075C675.028 427.102 675.92 429.304 677.12 431.365C678.601 433.908 681.043 435.396 680.418 438.664L680.009 438.242C679.561 437.786 678.234 436.387 677.711 436.371C672.522 436.215 666.877 435.362 661.815 434.645L662.099 433.897C664.432 433.044 675.914 435.557 678.288 434.753C677.44 432.136 667.317 419.417 665.074 417.313C659.411 416.345 616.95 416.824 612.929 419.006C608.156 425.68 629.32 453.974 620.89 461.046C620.203 460.067 616.447 448.961 615.804 446.971L615.31 447.177C614.601 445.859 613.341 441.497 612.825 439.857C609.57 439.858 592.153 439.252 590.317 440.497C588.008 443.689 591.305 453.996 588.871 457.233C584.01 458.183 561.822 456.531 560.605 458.219C560.552 459.808 560.475 461.412 560.5 463C567.207 462.982 581.377 462.551 587.503 463.227C588.388 465.594 588.165 477.386 587.951 480.419L587.334 480.475C580.851 480.999 566.094 479.993 561.454 480.744C560.372 482.085 560.706 484.857 560.803 486.668C563.143 487.528 580.407 486.786 583.828 486.911C585.681 486.978 587.813 486.211 590.167 486.803L590.201 487.355C588.93 488.015 586.75 487.162 584.204 487.868C586.027 487.872 588.301 487.677 589.91 488.377C590.437 491.969 590.136 500.668 590.098 504.66C575.004 505.421 554.814 504.728 539.396 504.651L539.395 465.017C539.391 457.581 539.654 447.575 538.961 440.381L538.53 440.004L538.563 439.279C542.484 438.244 566.87 439.004 572.255 439C572.126 435.885 573.481 418.048 574.916 416.207C577.116 411.879 577.714 386.255 580.741 383.815C582.768 383.933 582.855 383.879 584.839 383.221L585.328 383.054Z"/><path fill="white" d="M538.961 440.381C541.664 439.21 582.661 439.787 588.756 439.761L588.816 456.675C579.127 456.698 569.167 456.841 559.5 456.689L559.499 463.979L587.376 463.918L587.269 479.786L559.621 479.776L559.588 488.008C566.565 487.988 577.561 488.316 584.204 487.868C586.027 487.872 588.301 487.677 589.91 488.377C590.437 491.969 590.136 500.668 590.098 504.66C575.004 505.421 554.814 504.728 539.396 504.651L539.395 465.017C539.391 457.581 539.654 447.575 538.961 440.381Z"/><path fill="#015B6A" d="M482.627 103.15L637.727 103.017C623.09 148.47 608.047 193.792 592.6 238.976C591.747 237.5 591.151 236.275 591.182 234.538C591.319 226.862 592.279 219.18 592.557 211.499C593.251 192.333 593.953 173.558 595.659 154.453C598.908 152.162 600.684 150.938 603.52 148.201C603.9 141.388 603.663 137.154 598.902 131.548C598.928 123.068 599.822 124.266 602.348 116.228C602.584 115.479 603.032 107.074 603.346 104.857C604.433 107.579 604.167 115.999 605.88 117.998C606.572 115.477 605.736 107.028 605.658 103.761C593.669 103.187 484.569 104.256 482.627 103.15Z"/><path fill="white" d="M638.149 439.837L659.964 439.831C651.175 460.544 644.451 483.551 636.116 504.398C633.044 503.791 619.101 503.975 615.269 503.98C611.62 493.135 606.167 480.464 602.008 469.739C598.653 461.09 594.258 448.654 590.317 440.497C592.153 439.252 609.57 439.858 612.825 439.857C613.341 441.497 614.601 445.859 615.31 447.177C618.099 458.031 622.437 469.237 625.451 480.298C629.485 465.736 633.258 454.123 638.149 439.837Z"/><path fill="#0A4166" d="M704.191 383.081L847.008 383.166C873.657 383.125 903.728 382.349 929.995 383.186L929.987 538.381L929.95 590.064C929.939 598.38 930.193 608.145 929.863 616.285C929.034 612.485 929.35 600.148 929.396 595.701C920.955 587.464 901.27 576.094 888.552 575.621C881.735 575.368 864.219 575.004 860.632 581.231L861.035 581.484L862.587 580.158L862.82 580.661C859.242 585.862 858.231 583.672 859.096 588.769C856.853 589.962 858.762 587.861 856.554 589.477C856.509 591.735 857.713 591.606 859.778 592.16L859.777 593.092L859.53 592.008C859.514 594.093 859.729 593.293 857.954 595.187C856.941 594.47 857.222 594.749 856.507 593.819L856.201 594.338C857.782 596.008 859.084 596.468 859.064 598.032C855.392 601.621 847.014 604.507 843.576 608.519C842.823 609.397 842.755 612.373 842.735 613.629L842.729 614.104C837.952 618.171 827.444 620.093 823.941 624.008C823.793 626.173 825.672 627.003 827.364 628.19L827.204 628.618C825.472 628.187 823.708 625.908 822.013 624.489C818.634 626.673 820.023 629.475 821.849 632.198C821.249 635.038 816.557 632.924 819.176 642.751C820.963 644.325 821.892 643.09 824.287 643.127C821.357 645.786 821.48 643.796 817.402 648.235C810.123 653.558 811.621 656.046 807.82 663.318L807.529 663.863C804.857 662.953 802.005 662.266 799.266 661.546C799.44 660.647 799.572 659.666 799.717 658.791C800.171 656.036 797.356 652.653 795.592 650.696C793.938 648.861 789.19 645.011 786.509 645.149C785.531 645.199 785.623 645.291 784.633 644.797C784.121 639.48 781.856 643.678 777.792 640.235C777.291 638.91 777.209 638.39 776.296 637.312C774.847 637.229 774.479 637.233 773.03 636.897C772.258 635.009 773.007 633.436 773.251 630.875C771.307 625.283 766.912 624.556 767.369 616.741C767.523 614.118 759.906 606.851 757.395 604.387C741.681 601.287 721.813 612.445 711.076 623.329C715.139 612.965 741.951 602.378 752.793 602.933C760.68 603.593 767.665 611.346 768.612 619.042C769.674 627.671 774.8 625.086 774.231 635.612C776.627 637.435 779.956 640.157 782.54 641.448L784.07 640.703L784.712 641.131C784.929 642.455 784.922 643.009 785.532 644.201C792.287 644.639 792.948 647.673 797.465 651.474C801.77 655.095 798.89 658.994 801.124 660.595C809.255 666.422 808.392 658.243 811.025 653.09C812.385 650.429 816.768 648.392 818.407 645.741C819.909 642.185 815.764 637.476 818.433 633.657C819.381 633.385 819.84 633.243 820.747 632.862C820.976 631.02 817.474 628.715 819.058 626.476C823.835 619.729 834.46 616.462 841.818 613.696C842.768 612.256 842.551 611.926 842.426 609.938C842.146 605.478 854.854 599.856 857.435 597.318C856.021 593.963 852.133 592.375 851.778 589.507C851.733 587.494 859.63 579.647 860.945 578.843C880.42 566.918 917.406 580.477 929 594.208L928.984 452.545C928.994 432.236 929.76 412.008 929.325 391.719C929.273 389.295 929.124 386.856 928.906 384.441C925.724 383.356 886.804 383.998 881.192 383.999L707.293 384.175L704.191 383.081Z"/><path fill="#0D2053" d="M615.31 447.177L615.804 446.971C616.447 448.961 620.203 460.067 620.89 461.046C629.32 453.974 608.156 425.68 612.929 419.006C616.95 416.824 659.411 416.345 665.074 417.313L664.582 417.354C653.243 418.214 639.257 417.098 627.655 418.073C623.915 418.387 618.772 417.981 615.213 418.949L614.876 419.598C617.24 423.344 621.67 428.191 624.643 431.649C625.621 432.787 627.171 433.205 628.48 434.759C629.847 436.084 631.891 439.273 632.369 441.019C633.611 442.026 633.179 441.649 633.98 443.202C635.21 443.932 634.572 443.826 635.949 443.57L637.747 439.288C640.082 438.342 657.058 438.754 660.089 439.129C660.609 440.086 660.432 441.235 660.031 442.256C652.206 462.193 645.109 482.496 637.882 502.676C636.981 505.193 635.073 505.766 632.487 504.776C633.87 504.698 634.771 504.732 636.116 504.398C644.451 483.551 651.175 460.544 659.964 439.831L638.149 439.837C633.258 454.123 629.485 465.736 625.451 480.298C622.437 469.237 618.099 458.031 615.31 447.177Z"/><path fill="#015B6A" d="M632.369 441.019C632.762 442.13 632.793 442.284 632.965 443.452C631.364 445.302 627.876 445.1 625.801 444.15C623.132 441.076 614.656 423.463 613.202 419.323C618.93 425.343 621.092 431.31 628.48 434.759C629.847 436.084 631.891 439.273 632.369 441.019Z"/><path fill="#015B6A" d="M360.856 103.087L482.627 103.15C484.569 104.256 593.669 103.187 605.658 103.761C605.736 107.028 606.572 115.477 605.88 117.998C604.167 115.999 604.433 107.579 603.346 104.857C603.032 107.074 602.584 115.479 602.348 116.228C599.822 124.266 598.928 123.068 598.902 131.548C603.663 137.154 603.9 141.388 603.52 148.201C600.684 150.938 598.908 152.162 595.659 154.453C593.953 173.558 593.251 192.333 592.557 211.499C592.279 219.18 591.319 226.862 591.182 234.538C591.151 236.275 591.747 237.5 592.6 238.976C581.406 271.084 571.097 304.164 559.961 336.321C554.774 351.301 549.575 368.496 543.959 383.116C557.369 383.039 571.972 382.7 585.328 383.054L584.839 383.221C582.855 383.879 582.768 383.933 580.741 383.815C577.714 386.255 577.116 411.879 574.916 416.207C574.185 409.71 578.015 393.123 577.755 384.245C569.02 384.259 552.653 384.668 544.376 383.798C542.837 382.689 545.033 377.493 545.654 375.604L575.375 287.381C579.123 276.591 582.79 265.773 586.378 254.928C587.947 250.174 589.568 245.388 590.936 240.579C591.486 238.647 589.691 235.999 589.82 234.033C589.971 231.748 590.303 229.44 590.51 227.143C591.058 221.356 591.511 215.56 591.869 209.758C592.885 192.254 592.929 174.265 594.466 156.752C594.771 153.278 602.202 149.538 602.72 147.237C604.128 140.973 600.492 136.228 598.243 130.964C596.882 127.431 601.23 117.36 601.687 113.659C602.083 110.453 601.854 108.083 602.475 104.664C600.996 103.231 386.395 104.857 368.721 104.275C366.925 104.216 362.677 104.667 360.591 103.856L360.856 103.087Z"/><defs><linearGradient id="gradient_1" gradientUnits="userSpaceOnUse" x1="650.38214" y1="517.06561" x2="710.06342" y2="484.3685"><stop offset="0" stop-color="#16104E"/><stop offset="1" stop-color="#003059"/></linearGradient></defs><path fill="url(#gradient_1)" d="M661 472.255C660.988 467.2 661.047 461.566 661.377 456.519C661.584 453.35 660.437 440.83 661.913 439.089C664.742 438.324 667.484 438.778 670.283 439.458C674.025 439.559 677.77 439.588 681.513 439.546C681.556 443.876 681.417 451.009 681.937 455.104C682.419 450.774 682.166 444.103 682.125 439.582C683.585 439.412 685.041 439.218 686.494 438.999C686.478 444.803 686.52 450.708 686.439 456.502L692.744 456.458C695.205 458.819 699.715 463.627 701.409 466.522C700.947 467.24 700.553 467.815 700.049 468.504C701.165 469.476 701.524 469.369 703.045 469.801L704.115 470.329C704.634 472.89 704.415 475.456 704.346 478.087L704.367 478.546L704.233 489.246L703.717 488.711C699.806 484.598 696.33 477.323 692.385 475.402L691.431 475.786C690.086 479.839 699.281 489.89 702.044 492.733C702.431 493.131 703.806 497.081 704.278 497.969C704.8 504.124 701.47 504.995 702.719 511.906C703.801 518.337 705.08 524.74 706.348 531.132C707.199 535.423 712.502 542.252 709.303 545.879C706.957 546.485 704.478 540.762 700.656 539.952C691.372 537.983 689.459 555.667 680.144 550.69C679.586 553.567 677.963 563.193 675.562 564.313L674.502 563.686C672.818 560.692 671.876 547.586 671.682 543.467C671.615 542.046 674.094 537.571 673.453 535.816C670.341 527.306 664.761 519.864 662.425 510.816C659.465 499.354 662.027 485.325 660.814 474.154C656.396 472.852 653.664 474.168 649.75 473.148L649.649 472.611C652.563 472.044 657.827 472.241 661 472.255Z"/><path fill="white" d="M670.283 439.458C674.025 439.559 677.77 439.588 681.513 439.546C681.556 443.876 681.417 451.009 681.937 455.104C681.682 459.998 681.994 467.771 682.021 472.853C682.085 483.331 682.048 493.81 681.91 504.288L661.978 504.515C661.831 482.862 661.878 461.207 662.118 439.555L670.283 439.458Z"/><path fill="#0A4166" d="M703.045 469.801L704.115 470.329C704.634 472.89 704.415 475.456 704.346 478.087C701.697 475.386 701.104 472.945 703.045 469.801Z"/><path fill="white" d="M215.486 439.14C223.332 438.836 247.951 438.569 254.535 439.849C257.805 440.481 260.923 441.733 263.722 443.537C274.292 450.472 276.57 465.304 269.534 475.532C265.387 481.561 259.474 483.738 252.619 484.896C247.109 485.332 241.636 485.195 236.111 485.154L236.052 504.878C229.448 505.172 222.086 505.083 215.422 505.129L215.486 439.14Z"/><path fill="#3C2D5B" d="M236.534 456.108C243.156 456.159 259.873 455.706 251.317 467.298C247.932 469.359 240.426 468.581 236.123 468.478C235.976 464.289 236.282 460.281 236.534 456.108Z"/><path fill="white" d="M290.373 439.147C296.663 438.913 303.767 439.063 310.118 439.068C318.219 461.047 326.908 482.804 336.175 504.317L314.444 504.484C313.154 500.842 313.279 496.64 309.125 496.287C302.001 496.317 294.878 496.281 287.754 496.18L284.641 504.607C277.645 504.686 270.445 504.557 263.432 504.512C271.939 482.862 281.889 461.277 290.373 439.147Z"/><path fill="#3C2D5B" d="M299.666 465.274C301.28 466.824 304.693 477.816 305.651 480.592L300.58 480.776L293.885 480.742L299.666 465.274Z"/><path fill="white" d="M770.557 438.688C780.122 437.622 789.281 440.772 797.845 444.619C795.552 449.76 792.928 455.112 790.545 460.261C784.234 457.141 774.656 453.363 767.693 456.155C758.655 466.012 800.253 460.274 800.992 483.556C801.167 488.841 799.159 493.965 795.44 497.725C788.763 504.611 779.851 505.409 770.902 505.438C760.675 504.181 754.076 503.412 745.43 497.805C747.603 492.22 750.597 487.042 753.437 481.749C757.652 484.593 761.318 486.741 766.267 488.155C769.981 489.216 779.445 490.667 780.336 485.305C775.732 477.408 748.944 481.612 747.159 463.438C745.431 445.847 755.398 440.693 770.557 438.688Z"/><path fill="white" d="M326.716 439.23C332.536 439.091 338.358 439.023 344.18 439.025C348.312 451.678 352.498 463.676 356.453 476.488C361.516 464.575 364.846 451.188 369.838 439.022C377.128 439.02 384.417 439.135 391.702 439.364C388.157 447.436 385.318 455.095 382.267 463.376C377.095 477.023 372.024 490.708 367.055 504.43C360.514 504.597 353.969 504.651 347.425 504.593C341.976 492.166 337.253 477.672 332.082 464.944C330.461 460.955 323.057 442.739 322.675 439.945C324.139 439.109 324.883 439.328 326.716 439.23Z"/><path fill="white" d="M503.021 438.657C516.854 437.031 525.586 440.646 535.82 449.468C531.618 454.262 527.589 459.204 523.74 464.285C519.131 460.109 514.99 456.278 508.3 456.395C504.467 456.442 500.82 458.053 498.203 460.854C483.232 476.892 507.392 499.47 523.135 479.216L528.534 484.355C531.527 487.282 534.008 489.621 536.613 492.941C524.189 507.415 503.14 509.621 487.56 498.938C480.406 494.042 475.554 486.444 474.123 477.894C470.587 457.733 483.321 442.013 503.021 438.657Z"/><path fill="white" d="M686.494 438.999C705.244 439.015 725.032 438.752 743.728 439.128L743.618 456.509L725.307 456.454L725.303 503.951L704.886 504.04L704.805 493.13C704.913 488.312 704.928 483.492 704.849 478.672L704.367 478.546L704.346 478.087C704.415 475.456 704.634 472.89 704.115 470.329L703.045 469.801C701.524 469.369 701.165 469.476 700.049 468.504C700.553 467.815 700.947 467.24 701.409 466.522C699.715 463.627 695.205 458.819 692.744 456.458L686.439 456.502C686.52 450.708 686.478 444.803 686.494 438.999Z"/><path fill="#015B6A" d="M692.744 456.458L704.95 456.452L704.849 478.672L704.367 478.546L704.346 478.087C704.415 475.456 704.634 472.89 704.115 470.329L703.045 469.801C701.524 469.369 701.165 469.476 700.049 468.504C700.553 467.815 700.947 467.24 701.409 466.522C699.715 463.627 695.205 458.819 692.744 456.458Z"/><path fill="white" d="M395.017 439.64C401.483 439.418 408.291 439.438 414.786 439.361L414.663 487.796C423.928 487.757 433.192 487.788 442.455 487.887L442.364 504.284C438.96 504.642 430.122 504.432 426.413 504.431L395.106 504.403C394.531 483.929 394.835 460.256 395.017 439.64Z"/><path fill="white" d="M447.546 439.681C454.302 439.52 461.061 439.481 467.819 439.565C468.266 459.946 467.588 483.463 467.603 504.235C461.024 504.226 454.445 504.276 447.866 504.386L447.546 439.681Z"/><path fill="white" d="M511.103 517.08C521.45 516.194 523.333 519.638 520.671 528.388C519.871 531.018 529.281 537.841 516.06 541.494C507.972 541.49 499.971 538.213 507.523 529.191C508.98 527.451 505.213 525.567 505.401 521.983C506.775 519.005 508.097 518.561 511.103 517.08Z"/><path fill="#20496A" d="M512.614 531.684C513.444 531.136 514.508 531.089 515.382 531.562C516.256 532.035 516.799 532.951 516.795 533.945C516.79 534.939 516.238 535.85 515.359 536.314C514.088 536.986 512.515 536.542 511.782 535.306C511.049 534.07 511.415 532.476 512.614 531.684Z"/><path fill="#20496A" d="M513.491 521.755C514.555 521.38 515.727 521.892 516.176 522.928C516.624 523.963 516.195 525.168 515.194 525.688C514.48 526.058 513.621 525.999 512.965 525.535C512.309 525.071 511.966 524.281 512.077 523.485C512.188 522.689 512.733 522.022 513.491 521.755Z"/><path fill="white" d="M492.223 516.537C512.453 516.435 501.605 551.76 485.817 538.406C486.237 536.999 486.147 536.732 487.15 535.73C489.73 535.585 493.256 535.512 495.472 534.367C496.581 532.727 496.31 533.612 496.284 531.608C489.147 535.232 483.099 528.909 485.283 521.795C486.107 519.112 489.68 517.472 492.223 516.537Z"/><path fill="#20496A" d="M492.701 522.292C494.208 521.855 495.796 522.665 496.326 524.142C496.857 525.619 496.147 527.254 494.707 527.876C493.691 528.314 492.515 528.152 491.656 527.455C490.796 526.758 490.395 525.642 490.615 524.557C490.834 523.473 491.638 522.6 492.701 522.292Z"/><path fill="white" d="M533.802 516.628C538.557 517.1 543.283 519.233 542.346 525.033C541.54 530.025 538.092 532.854 534.352 535.801C537.414 535.644 541.156 534.67 543.122 537.106C543.128 538.828 543.257 538.915 542.338 540.42C539.541 542.471 533.296 541.5 529.198 541.478L526.427 541.472C524.847 540.579 525.35 541.219 524.827 539.522C526.403 533.457 536.296 529.961 535.517 523.816C532.244 520.39 528.323 527.385 524.841 523.218C524.722 519.561 530.77 517.259 533.802 516.628Z"/><path fill="white" d="M480.012 517.118C481.176 517.253 480.804 517.16 481.854 517.605C483.022 520.235 482.513 537.436 482.48 541.529C480.226 541.557 477.168 541.951 475.577 540.855C475.603 536.336 476.224 529.43 475.426 525.212C474.707 524.88 474.019 524.652 473.259 524.434C471.928 522.444 472.298 521.766 472.119 519.147C474.885 518.325 477.211 517.762 480.012 517.118Z"/><path fill="#0A4166" d="M528.035 774.772C529.129 776.986 528.515 784.224 527.4 786.571C525.741 782.053 526.502 779.285 528.035 774.772Z"/><path fill="#0D2053" d="M771.946 537.626C775.399 539.375 774.158 541.695 773.09 544.81C769.818 542.562 770.627 540.876 771.946 537.626Z"/></svg>