<?xml version="1.0" encoding="utf-8" ?><svg xmlns="http://www.w3.org/2000/svg" xmlns:xlink="http://www.w3.org/1999/xlink" width="1024" height="1024" viewBox="0 0 1024 1024"><path fill="white" d="M0 0L1024 0L1024 1024L0 1024L0 0Z"/><path fill="#18314E" d="M411.186 127.404C433.084 126.707 456.449 127.097 478.454 127.113L587.557 127.125L962.98 127.023L963.346 896.669C955.454 896.728 939.249 897.276 931.942 896.597L930.59 896.748C899.295 896.25 866.443 896.775 834.992 896.767L654.49 896.611L60.4408 896.595L60.7231 127.114L247.525 127.201C281.286 127.193 319.156 126.357 352.673 127.505C370.562 126.678 392.921 127.323 411.186 127.404Z"/><defs><linearGradient id="gradient_0" gradientUnits="userSpaceOnUse" x1="928.81555" y1="905.51807" x2="667.22675" y2="52.069752"><stop offset="0" stop-color="#004351"/><stop offset="1" stop-color="#6C4A64"/></linearGradient></defs><path fill="url(#gradient_0)" d="M411.186 127.404C433.084 126.707 456.449 127.097 478.454 127.113L587.557 127.125L962.98 127.023L963.346 896.669C955.454 896.728 939.249 897.276 931.942 896.597L930.59 896.748C927.66 891.571 922.958 880.831 920.176 875.009C914.778 863.672 909.192 852.426 903.418 841.275C886.049 807.147 868.036 773.351 849.39 739.904C847.123 735.787 844.635 731.784 842.267 727.726C828.058 703.077 814.158 678.309 799.51 653.906C788.951 636.316 776.885 618.703 766.913 600.876C787.414 601.82 811.233 600.709 832.034 601.1C840.24 601.254 865.19 601.701 871.934 600.909L871.885 425.01L767.531 425.126L742.229 425.051C731.226 425.336 719.001 425.061 707.921 425.051L641.208 424.99L622.57 424.982C613.303 410.974 602.228 391.609 592.401 378.816C591.146 377.304 584.033 365.669 582.296 362.959C574.022 350.057 565.629 337.57 556.651 325.129C553.318 320.511 549.372 314.038 545.902 309.906C543.664 308.577 538.62 300.376 536.882 297.739C534.812 296.091 513.417 265.119 510.03 260.376C496.984 242.11 483.277 223.298 470.181 204.955C462.917 194.781 454.582 184.843 447.502 174.537C443.449 168.639 439.393 160.859 435.623 154.599C430.138 145.493 424.156 136.696 417.704 128.247L411.09 127.964L411.186 127.404Z"/><path fill="#31244C" d="M817.543 267.438C821.21 268.647 838.334 267.273 843.414 268.652C845.709 269.274 846.934 271.239 849.29 271.574C860.854 273.469 867.297 273.526 876.141 282.365C880.761 286.982 884.161 291.143 887.767 296.902C888.409 297.927 890.691 302.184 891.672 302.503C896.612 310.119 899.874 322.196 901.785 331.182C902.264 333.43 902.736 339.053 903.132 340.471C910.029 345.948 907.24 358.857 899.652 361.818L899.562 362.302C899.163 364.567 899.359 363.653 899.441 365.265C899.658 369.5 895.574 374.568 894.333 379.471C892.462 386.861 894.632 399.973 890.542 405.882C889.352 408.247 888.327 410.286 887.307 412.748C887.095 414.37 886.725 415.443 887.523 416.807C890.486 417.839 893.717 414.333 896.263 416.364C899.249 418.745 900.276 425.326 901.615 428.895C916.06 430.206 919.121 429.38 928.886 440.41C952.342 466.907 955.001 478.44 951.503 513.023C949.477 533.059 948.778 545.15 939.125 564.205C935.564 571.233 930.08 581.172 927.437 588.743C925.718 594.166 925.651 599.91 924.341 605.44C922.884 611.593 919.821 617.949 918.351 624.016C915.914 634.074 912.983 643.328 909.836 653.152C914.011 662.699 915.36 666.301 911.329 676.507C907.735 685.605 902.419 693.379 897.852 702.023C896.618 704.359 891.856 713.966 890.889 715.137C887.136 721.959 892.436 728.535 886.892 737.21C891.554 745.613 893.298 745.004 892.19 754.732C897.455 766.336 896.016 764.533 895.274 776.327C895.968 780.527 903.47 788.514 905.948 793.91C910.093 803.092 913.593 812.552 916.421 822.222C917.675 826.469 916.523 828.66 918.68 832.521C920.103 838.367 922.536 845.447 924.273 851.357C929.124 867.859 931.191 879.414 931.942 896.597L930.59 896.748C927.66 891.571 922.958 880.831 920.176 875.009C914.778 863.672 909.192 852.426 903.418 841.275C886.049 807.147 868.036 773.351 849.39 739.904C847.123 735.787 844.635 731.784 842.267 727.726C828.058 703.077 814.158 678.309 799.51 653.906C788.951 636.316 776.885 618.703 766.913 600.876C787.414 601.82 811.233 600.709 832.034 601.1C840.24 601.254 865.19 601.701 871.934 600.909L871.885 425.01L767.531 425.126C767.673 419.782 767.563 418.768 769.528 413.857C766.216 408.326 764.298 405.878 768.753 400.232L768.314 399.381C760.414 396.902 762.565 390.937 763.655 384.194C751.783 382.679 742.157 381.324 750.695 366.573C753.45 361.813 756.225 356.968 758.572 351.987C732.354 353.499 712.664 351.629 704.543 322.272C703.762 319.445 703.792 315.683 707.52 315.169C719.115 313.57 730.89 313.056 742.504 311.474C747.984 310.72 753.77 310.309 759.166 309.197L759.668 309.089C774.344 289.746 791.461 269.001 817.543 267.438Z"/><path fill="#18314E" d="M866.339 730.589C861.033 729.352 853.771 725.941 850.355 721.58C845.168 714.957 847.382 705.969 853.818 700.974C852.833 702.63 851.882 704.305 850.966 706C848.361 710.898 848.025 713.467 849.577 719.291C850.333 722.126 858.414 726.433 861.18 727.79C869.035 731.644 869.282 727.122 875.415 724.848C883.639 726.001 881.965 730.2 885.197 732.477C887.136 729.39 884.587 723.307 888.53 718.722C888.201 717.223 884.629 714.878 882.594 710.738L883.296 710.612L884.168 711.413L883.031 711.858C885.452 714.376 887.474 717.096 890.889 715.137C887.136 721.959 892.436 728.535 886.892 737.21L886.855 735.955C885.378 733.227 880.426 728.631 877.304 727.58C874.099 726.5 869.668 729.149 866.339 730.589Z"/><path fill="#3C2D5B" d="M887.307 412.748C885.233 409.503 886.192 403.448 890.735 402.825L891.176 403.234L890.542 405.882C889.352 408.247 888.327 410.286 887.307 412.748Z"/><path fill="#31244C" d="M578.893 286.815C586.617 283.586 604.862 275.955 612.862 278.526C618.185 280.236 629.601 305.562 635.428 310.764C636.894 312.073 640.042 318.465 641.849 320.097C647.735 325.589 652.911 334.053 658.545 339.294C666.039 336.139 675.312 331.539 682.895 335.743C699.108 344.731 693.907 363.408 682.478 373.122C683.713 374.594 684.739 375.389 685.918 376.644C697.527 388.999 708.65 401.973 722.228 412.296C725.89 415.081 729.297 422.032 734.23 421.584L735.177 421.489C738.806 421.151 740.225 422.051 742.229 425.051C731.226 425.336 719.001 425.061 707.921 425.051L641.208 424.99L622.57 424.982C613.303 410.974 602.228 391.609 592.401 378.816C591.146 377.304 584.033 365.669 582.296 362.959C574.022 350.057 565.629 337.57 556.651 325.129C553.318 320.511 549.372 314.038 545.902 309.906C543.664 308.577 538.62 300.376 536.882 297.739C543.835 292.594 554.402 293.7 556.03 292.324C561.317 283.035 569.995 284.075 578.893 286.815Z"/><path fill="#3C2D5B" d="M592.401 378.816C594.196 378.157 599.787 376.092 601.479 375.82C608.468 374.696 614.123 374.659 621.189 373.08L622.356 379.072C624.72 381.335 630.842 387.124 631.148 390.393C630.19 391.579 629.36 392.191 629.427 393.842C629.557 397.026 639.652 419.838 641.208 424.99L622.57 424.982C613.303 410.974 602.228 391.609 592.401 378.816Z"/><path fill="#31244C" d="M536.882 297.739C543.835 292.594 554.402 293.7 556.03 292.324C559.693 293.223 565.636 292.198 567.357 294.282L567.396 294.884C565.5 295.072 563.292 295.043 561.359 295.076C556.697 296.034 543.414 297.721 538.427 298.356C540.029 300.82 544.876 307.747 545.902 309.906C543.664 308.577 538.62 300.376 536.882 297.739Z"/><path fill="#3C2D5B" d="M672.938 345.495C683.464 346.256 680.806 360.463 677.317 362.749L676.516 362.156C672.573 357.073 668.968 354.578 666.316 348.353C668.357 347.37 670.825 346.395 672.938 345.495Z"/><path fill="#757090" d="M588.541 342.207C589.354 342.848 589.266 342.948 589.864 343.872L589.486 344.581C586.737 345.37 579.796 346.218 576.606 346.748L575.611 346.741C576.366 346.148 586.681 342.95 588.541 342.207Z"/><path fill="#000108" d="M918.68 832.521C916.523 828.66 917.675 826.469 916.421 822.222C913.593 812.552 910.093 803.092 905.948 793.91C903.47 788.514 895.968 780.527 895.274 776.327C896.614 777.646 896.377 777.877 897.862 778.055C899.276 775.781 901.622 776.791 903.86 777.7C905.924 777.199 907.616 776.527 909.599 775.797C912.054 778.047 912.691 779.559 914.281 782.35C914.829 783.312 917.83 783.536 918.861 784.937C926.656 795.53 933.1 807.279 939.283 818.866C940.925 821.943 943.964 828.723 940.982 831.524C938.258 834.119 935.454 836.257 931.614 836.152C926.16 836.427 922.07 830.476 919.856 830.854L918.68 832.521Z"/><path fill="#31244C" d="M817.543 267.438C825.551 264.461 843.412 270.298 849.847 267.951C851.551 267.329 853.09 267.365 854.742 268.162C856.066 268.8 856.581 270.049 857.192 271.293C860.418 273.115 865.821 273.941 868.541 275.414C875.737 279.311 889.96 294.765 891.672 302.503C890.691 302.184 888.409 297.927 887.767 296.902C884.161 291.143 880.761 286.982 876.141 282.365C867.297 273.526 860.854 273.469 849.29 271.574C846.934 271.239 845.709 269.274 843.414 268.652C838.334 267.273 821.21 268.647 817.543 267.438Z"/><path fill="white" d="M151.966 424.951C204.833 424.237 259.38 425.001 312.474 425.004L622.57 424.982L641.208 424.99L707.921 425.051C719.001 425.061 731.226 425.336 742.229 425.051L767.531 425.126L871.885 425.01L871.934 600.909C867.202 600.339 853.453 600.61 848.312 600.594L798.154 600.554L637.075 600.571L152.182 600.139C151.999 584.426 152.318 568.374 152.273 552.609L151.966 424.951Z"/><path fill="#31244C" d="M264.263 469.409L285.96 469.482C296.65 492.017 305.867 515.926 315.917 538.853L291.723 539.003C290.544 535.134 289.579 531.682 287.879 527.988L261.793 528.032C260.483 531.673 259.198 535.323 257.937 538.982L234.955 539.028C237.323 532.112 241.565 522.705 244.456 515.85L264.263 469.409Z"/><path fill="white" d="M274.975 492.757C276.941 494.826 281.049 509.077 282.07 512.41L275.547 512.436L268.258 512.391C269.84 506.416 272.977 499.057 274.975 492.757Z"/><path fill="#31244C" d="M182.954 469.505C195.465 469.47 220.562 467.809 230.881 472.83C236.297 475.475 240.423 480.187 242.331 485.904C244.604 492.549 244.182 501.204 240.957 507.427C236.72 515.603 231.789 517.052 223.837 519.799C218.09 520.88 211.656 520.85 205.791 520.895L205.663 538.746C198.106 538.819 190.548 538.839 182.991 538.807L182.954 469.505Z"/><path fill="white" d="M205.642 486.653C210.301 486.531 214.359 486.096 218.338 489.111C222.837 492.52 221.499 498.322 218.296 502.155C213.849 504.788 210.793 504.252 205.59 504.27L205.642 486.653Z"/><path fill="#31244C" d="M551.983 469.742L607.877 469.683L607.791 486.503C595.737 486.396 583.683 486.375 571.629 486.44L571.645 496.197C582.097 496.509 593.509 496.375 604.033 496.446L604.052 511.783L575.875 511.812C573.394 511.89 573.712 511.479 572.172 512.722C571.186 515.32 571.73 519.257 571.826 522.283C583.679 522.593 596.572 522.368 608.503 522.387L608.504 538.111L551.167 538.466C551.17 522.858 551.09 507.251 550.927 491.644C550.902 486.367 550.548 475.137 551.008 470.273L551.983 469.742Z"/><path fill="#31244C" d="M812.94 469.202C823.662 469.1 831.771 471.427 841.268 476.072C839.287 480.71 835.469 487.417 832.991 492.045C827.613 489.269 807.48 480.746 804.462 490.031C805.336 495.308 818.836 496.124 823.671 496.921C842.538 500.032 850.537 517.713 837.707 532.642C831.142 540.28 817.008 540.251 808.002 539.948C796.881 538.361 790.945 536.814 781.406 530.943C784.54 526.758 788.433 519.946 791.29 515.315C797.856 520.961 805.425 523.58 814.013 523.954C818.015 524.128 822.471 523.588 822.379 518.665C820.797 515.755 816.719 514.855 813.183 514.512C792.099 512.467 773.712 501.494 789.059 478.549C793.427 472.019 804.69 469.817 812.94 469.202Z"/><path fill="#31244C" d="M307.862 469.442C315.776 469.278 324.01 469.352 331.951 469.31C336.199 482.251 342.554 499.619 347.541 512.278C352.96 498.835 358.325 483.199 363.435 469.473L385.663 469.49C383.884 475.295 380.693 483.115 378.494 488.96C372.325 505.708 365.857 522.345 359.095 538.863C350.829 539.039 342.115 538.918 333.813 538.936C329.539 527.986 325.445 516.864 321.284 505.849C316.856 494.127 311.667 481.357 307.862 469.442Z"/><path fill="#31244C" d="M633.432 469.762C634.48 470.684 646.898 506.463 648.02 510.002C653.534 496.878 658.644 483.588 663.342 470.151C670.946 470.114 678.55 470.148 686.153 470.253C681.06 482.416 676.075 494.625 671.199 506.876C666.983 515.686 661.71 529.296 658.09 538.462C651.363 538.404 644.637 538.393 637.91 538.431C629.465 516.032 618.515 492.556 611.003 469.936C618.48 469.939 625.957 469.881 633.432 469.762Z"/><path fill="#31244C" d="M513.289 468.697C529.01 467.79 536.736 472.175 545.015 485.206C539.447 488.07 533.23 491.442 527.544 493.879C523.802 487.483 518.492 484.915 511.19 486.77C491.937 491.66 497.916 528.987 519.562 521.465C523.833 519.981 526.059 517.78 528.135 513.802C531.588 515.729 535.476 517.639 539.015 519.466L545.902 522.787C533.871 543.48 507.309 545.375 489.721 531.244C482.81 525.686 478.385 517.615 477.415 508.8C475.039 486.002 491.558 470.733 513.289 468.697Z"/><path fill="#31244C" d="M714.965 470.349L777.507 470.348L777.58 487.998L757.419 487.948C757.231 497.846 757.371 508.311 757.36 518.25L757.377 538.435C749.926 538.339 742.475 538.345 735.025 538.453L735.084 487.982L715.028 487.909L714.965 470.349Z"/><path fill="#31244C" d="M388.698 469.477L410.569 469.476L410.396 522.001L442.521 521.994L442.517 539.001L388.682 539.016L388.698 469.477Z"/><path fill="#31244C" d="M447.663 469.454L470.174 469.483L470.089 539.008L447.884 538.981C448.066 515.815 447.493 492.618 447.663 469.454Z"/><path fill="#31244C" d="M688.61 470.196C695.983 470.312 703.481 470.258 710.866 470.273L711.004 538.396L688.696 538.426C688.803 515.731 688.356 492.816 688.61 470.196Z"/><path fill="#000108" d="M524.145 561.001C532.508 560.842 546.909 559.14 547.112 571.254C547.179 575.257 546.326 576.737 543.706 579.688C537.562 583.694 531.215 582.69 523.927 582.557C524.339 575.453 524.186 568.135 524.145 561.001Z"/><path fill="white" d="M529.606 565.15C537.2 565.099 545.591 566.895 539.68 576.25C535.988 578.292 533.801 578.005 529.625 578.039L529.606 565.15Z"/><path fill="#000108" d="M391.611 560.68C396.922 560.587 410.193 559.353 412.506 565.314C412.589 568.805 410.867 568.709 409.737 571.126C411.169 572.281 412.979 573.453 413.645 575.074C413.68 577.205 413.404 577.53 412.545 579.562C407.748 583.508 397.546 582.344 391.061 582.243C391.095 575.608 390.924 567.105 391.611 560.68Z"/><path fill="white" d="M396.957 573.5C400.186 573.408 403.833 572.954 406.745 574.037C408.087 575.605 407.722 574.7 407.697 576.915C404.645 578.367 400.952 579.099 397.805 577.672C396.552 575.991 396.992 576.117 396.957 573.5Z"/><path fill="white" d="M403.326 564.714C404.988 565.138 405.13 565.035 406.345 566.294C406.158 569.714 403.044 569.711 400.378 569.743C397.812 569.607 398.193 569.736 396.595 568.461L396.469 567.33C398.381 564.309 400.079 564.783 403.326 564.714Z"/><path fill="#000108" d="M621.722 560.6C624.857 560.366 629.707 560.738 631.771 563.409C632.835 566.836 631.141 568.494 629.82 571.843C634.836 578.079 634.811 581.071 626.092 583.5C618.435 583.744 610.934 581.181 616.819 572.658C618.497 570.228 613.952 568.668 614.908 564.587C616.562 562.157 618.981 561.443 621.722 560.6Z"/><path fill="white" d="M622.186 573.477C624.818 573.408 626.869 573.319 627.798 576.143C627.453 577.92 627.005 578.173 625.757 579.468C623.088 579.561 620.715 579.708 619.688 576.836C620.07 575.053 620.798 574.688 622.186 573.477Z"/><path fill="white" d="M621.172 564.459C623.765 564.413 625.531 564.25 626.913 566.69C626.866 568.3 626.456 568.494 625.423 569.774C622.758 569.937 621.696 570.075 620.107 567.757C620.109 565.703 620.037 566.42 621.172 564.459Z"/><path fill="#000108" d="M473.699 560.586C475.563 560.511 476.942 560.206 478.483 561.147C479.279 562.406 479.288 562.461 479.232 563.962L479.093 569.096L489.499 569.114L489.571 560.695L495.373 560.68C495.382 568.004 495.347 575.328 495.269 582.651C493.449 582.727 491.537 583.073 490.112 582.097C488.852 580.129 489.386 576.455 489.459 573.875L479.403 573.877C479.472 576.398 479.988 580.703 478.512 582.492C476.912 582.486 475.54 582.661 474.133 581.977C473.309 578.702 473.68 564.598 473.699 560.586Z"/><path fill="#000108" d="M372.537 560.924L378.272 560.797C381.541 567.686 385.146 575.735 388.805 582.312C383.802 582.387 383.316 583.215 380.469 578.588L379.125 578.352L369.524 578.346C368.835 580.061 368.805 580.26 367.721 581.838C366.144 582.832 363.826 582.468 361.856 582.409C365.106 575.404 369.057 567.903 372.537 560.924Z"/><path fill="white" d="M375.276 566.874C376.583 568.186 378.284 571.796 377.965 573.781L376.621 574.05C374.318 573.979 373.86 574.4 372.515 573.254C372.311 571.483 374.299 568.614 375.276 566.874Z"/><path fill="#000108" d="M298.173 560.537C302.151 560.484 316.928 558.87 317.325 563.232C314.307 567.548 307.049 562.738 304.382 566.025L304.6 568.016C307.335 571.744 311.118 567.962 314.735 569.817C315.722 571.542 315.371 570.597 315.336 572.934C313.791 574.066 306.921 573.577 304.596 573.552C304.163 574.63 303.978 576.202 304.211 577.372C307.568 580.407 313.603 576.34 316.849 579.429C317.426 580.958 317.446 580.842 317.064 582.422C315.621 583.349 300.985 582.974 298.122 582.969L298.173 560.537Z"/><path fill="#000108" d="M598.695 560.577C602.787 560.341 606.64 560.661 608.704 564.195C613.841 572.987 607.254 586.261 595.997 582.543C594.471 582.039 594.401 582.536 593.519 581.193C596.405 575.919 597.371 580.213 603.234 578.106C604.53 576.923 604.424 576.836 604.849 575.182L604.43 574.611L602.257 575.008C592.248 576.873 587.19 565.74 598.695 560.577Z"/><path fill="white" d="M599.632 564.798C601.433 563.882 603.637 564.563 604.606 566.336C605.576 568.109 604.961 570.331 603.218 571.354C602.043 572.043 600.587 572.038 599.416 571.342C598.245 570.646 597.546 569.367 597.591 568.006C597.636 566.645 598.418 565.416 599.632 564.798Z"/><path fill="#000108" d="M501.484 560.883C504.101 560.894 518.229 560.648 519.595 561.495C519.593 563.586 519.899 563.228 518.97 564.767C515.191 566.044 510.476 563.272 507.525 565.894C506.908 567.506 506.92 567.382 507.176 569.088C509.375 570.269 514.742 568.581 517.337 570.149C517.683 571.607 517.682 571.5 517.332 572.958C516.005 573.803 509.94 573.508 507.948 573.501L506.966 573.989C505.652 582.215 514.485 575.607 518.979 578.868C519.695 580.253 519.779 580.163 519.552 581.675C517.185 583.733 505.246 582.942 501.428 582.887L501.484 560.883Z"/><path fill="#000108" d="M327.143 560.602C332.887 560.235 334.054 560.483 339.578 562.127C335.672 569.156 331.299 562.737 327.089 565.484C326.335 567.129 326.318 566.37 326.772 567.821C331.396 569.982 338.559 570.167 340.879 575.087C341.324 580.263 335.65 582.197 331.626 582.97C328.743 582.996 321.06 582.837 320.035 579.467C323.716 573.426 328.135 582.249 333.68 577.056C333.795 573.817 322.153 573.51 320.717 568.971C319.032 563.647 323.108 562.125 327.143 560.602Z"/><path fill="#000108" d="M457.772 560.543C460.835 560.452 466.956 560.257 468.755 562.949L468.308 563.817C464.972 565.688 457.705 563.648 456.27 566.372C458.797 571.182 467.324 568.478 469.678 575.423C469.514 580.595 464.848 582.29 460.507 582.914C457.749 582.757 451.24 582.503 449.979 580.031C452.179 573.833 456.459 580.532 463.298 577.231C463.486 574.462 451.311 572.974 450.538 568.375C449.707 563.426 454.002 561.76 457.772 560.543Z"/><path fill="#000108" d="M641.975 561.586C645.905 561.275 655.67 561.238 654.061 567.761C652.781 572.949 647.544 575.697 643.318 578.295C648.275 578.306 650.582 577.853 654.925 580.093L654.698 581.776C651.674 583.201 648.721 582.833 645.375 582.759L636.014 582.583C637.573 578.808 638.117 578.604 641.211 575.94C643.647 573.843 649.618 569.58 647.64 566.006C644.533 565.449 640.409 567.72 636.901 566.824L636.59 566.052C637.659 563.634 639.733 562.645 641.975 561.586Z"/><path fill="#000108" d="M340.896 561.124C344.172 560.928 361.116 560.165 362.442 561.866C362.55 563.281 362.758 563.934 362.032 565.139C360.233 566.019 357.391 565.663 355.27 565.596C355.199 569.027 355.271 572.675 355.279 576.125L355.401 582.43L348.963 582.421L349.068 565.334C346.876 565.313 345.491 565.638 343.215 565.23C341.467 563.938 341.82 563.601 340.896 561.124Z"/><path fill="#000108" d="M417.893 560.499C419.871 560.487 421.222 560.231 422.749 561.116C423.31 565.164 423.04 573.618 423.022 578.02C427.478 578.139 431.539 577.15 435.256 578.597C436.415 580.21 436.012 580.057 436.052 582.499L417.806 582.5L417.893 560.499Z"/><path fill="#000108" d="M576.112 561.148L585.639 561.161C585.599 564.77 586.234 580.684 584.885 582.735C582.64 582.781 582.718 583.142 581.118 582.172C579.032 577.647 580.863 574.787 580.86 569.983C580.856 563.882 577.339 566.508 575.7 564.718L576.112 561.148Z"/><path fill="#000108" d="M440.546 560.642L445.697 560.763L445.613 582.542C443.412 582.599 442.858 582.651 440.733 582.249C439.904 580.356 440.481 564.039 440.546 560.642Z"/><path fill="#31244C" d="M352.673 127.505C370.562 126.678 392.921 127.323 411.186 127.404L411.09 127.964C408.479 127.958 397.51 127.653 396.066 128.509L396.166 129.56C397.749 131.64 398.75 133.951 400.136 136.16C403.332 141.253 406.689 146.122 410.527 150.761C411.916 152.44 421.537 164.474 422.448 164.512C423.764 164.567 426.715 161.607 430.996 162.099C431.327 162.137 431.658 162.187 431.99 162.224C432.648 162.299 433.289 162.327 433.934 162.496C435.626 162.94 436.835 164.231 437.691 165.698C439.065 168.052 439.077 170.891 438.345 173.455C437.561 176.199 435.181 180.116 432.531 181.401C430.168 182.547 426.416 182.67 423.954 181.828C422.697 181.398 419.712 180.643 419.155 179.559L420.613 179.347C422.834 180.487 425.657 181.246 428.089 180.323C428.156 178.333 425.225 175.755 424.679 174.093C421.15 163.413 414.746 157.509 407.602 149.356C405.47 146.924 394.196 130.627 394.063 128.263C387.58 126.89 355.298 129.238 352.673 127.505Z"/></svg>