<svg width="993" height="183" viewBox="0 0 993 183" fill="none" xmlns="http://www.w3.org/2000/svg">
<path d="M646.409 0.00650336C657.499 -0.221497 668.184 5.55155 672.604 16.3796C674.396 20.7733 672.998 23.1134 671.06 27.0563C671.626 30.2182 671.462 32.6982 671.396 35.8981C673.616 38.1641 677.151 40.9431 676.658 44.3141C671.792 50.2839 658.483 40.9942 655.408 49.7438L655.93 50.2165C657.8 49.6124 658.871 47.8878 660.167 46.3239C663.424 49.4589 668.686 54.3085 668.809 58.9655C669.127 71.0931 652.438 69.2987 653.12 82.6696C653.485 89.8224 654.445 96.1287 655.395 103.128C656.51 111.533 657.579 119.944 658.602 128.361L992.438 128.478V181.913L388.575 182.224L0.0986328 182.024L0 128.402L486.858 128.386C486.734 97.3455 474.653 93.2375 514.454 94.8815C514.163 82.6025 513.511 59.0008 529.976 57.5368C536.315 44.3792 532.491 46.6379 546.263 38.3219C562.373 28.594 578.267 20.6041 597.549 19.6462C606.718 19.1903 614.726 23.2181 623.597 22.0651C627.735 21.4718 628.268 13.6783 631.343 9.63541C635.75 3.8415 639.263 1.48051 646.409 0.00650336ZM524.592 124.534C522.713 120.576 521.127 120.217 517.002 120.4C513.986 121.784 511.256 122.773 511.907 126.577C514.02 129.221 515.549 128.584 518.663 128.483C521.246 128.458 521.857 128.881 523.785 127.627C524.687 126.133 524.723 126.255 524.592 124.534ZM601.089 74.8825C594.222 77.8105 587.701 84.2706 592.465 92.4313C595.171 97.0673 599.125 102.303 601.241 107.141C603.365 111.999 605.142 117.557 606.702 122.578C608.731 129.102 607.473 128.41 614.011 128.399C616.935 127.116 622.271 115.907 623.603 112.48C622.319 108.456 605.318 76.0126 604.082 75.2936C603.334 74.8587 601.943 74.9135 601.089 74.8825ZM646.303 87.8747C642.941 90.3376 640.358 92.4306 640.043 96.8903C639.131 109.788 642.748 114.792 639.129 127.92L644.574 128.129L652.192 128.158C651.61 123.995 647.351 89.3617 646.303 87.8747ZM634.61 51.695C633.752 55.649 633.097 63.3558 635.233 66.9948C638.306 68.9817 640.339 66.1997 642.572 64.0397C644.817 61.5938 646.845 60.0126 647.22 56.7477C645.62 52.6581 638.71 52.22 634.61 51.695Z" fill="#303C59"/>
</svg>
