<?xml version="1.0" encoding="utf-8" ?><svg xmlns="http://www.w3.org/2000/svg" xmlns:xlink="http://www.w3.org/1999/xlink" width="1024" height="1024" viewBox="0 0 1024 1024"><path fill="white" d="M0 0L1024 0L1024 1024L0 1024L0 0Z"/><defs><linearGradient id="gradient_0" gradientUnits="userSpaceOnUse" x1="741.81482" y1="688.77899" x2="65.059525" y2="209.21529"><stop offset="0" stop-color="#333064"/><stop offset="1" stop-color="#0E8283"/></linearGradient></defs><path fill="url(#gradient_0)" d="M55.4857 220.485L645.969 220.466L828.678 220.56L968.683 220.373L968.63 247.404C968.539 288.849 969.147 331.431 968.61 372.752L969.036 806.221C964.943 806.736 956.397 806.492 951.968 806.481L921.824 806.434L817.146 806.445L592.808 806.426C550.623 806.415 507.493 806.85 465.361 806.302C446.016 806.535 425.984 806.183 406.586 806.099C398.296 806.588 376.316 806.484 368.235 806.074C361.808 806.904 343.237 806.402 335.785 806.398L268.337 806.287L55.5195 806.342L55.4857 220.485Z"/><path fill="#31244C" d="M717.529 274.631C721.984 263.899 729.869 258.656 738.545 251.257C740.643 249.468 745.743 246.354 748.274 245.453C749.905 244.873 753.446 244.857 754.894 243.923C765.702 236.954 778.522 231.394 791.641 232.641C793.237 232.793 793.902 233.391 794.785 234.666C794.806 235.951 794.681 236.784 795.324 237.887C796.737 238.453 801.394 238.011 803.201 237.847C806.96 237.505 816.94 238.689 818.992 241.872C820.806 243.296 824.313 246.185 826.5 246.583L827.076 247.655C834.991 249.919 841.912 256.348 848.532 258.343C853.213 262.259 864.19 273.219 867.052 278.399C871.791 286.974 875.492 298.566 879.527 307.692C882.865 315.243 886.747 322.711 889.196 330.572C920.106 327.981 928.638 334.511 947.351 358.42C953.248 365.954 956.051 364.938 959.456 375.559C963.585 372.48 963.812 372.955 968.61 372.752L969.036 806.221C964.943 806.736 956.397 806.492 951.968 806.481L921.824 806.434L817.146 806.445L592.808 806.426C550.623 806.415 507.493 806.85 465.361 806.302C461.934 804.24 417.603 806.548 409.095 805.275L408.754 804.643C410.862 800.183 420.026 791.489 423.371 787.366C424.347 786.696 424.653 784.194 425.133 783.572C439.384 765.079 454.515 745.254 469.947 727.846C486.034 709.701 504.103 693.436 520.454 675.729C524.09 671.791 546.085 653.104 546.852 651.623C543.864 652.193 524.03 671.721 520.078 674.743C523.272 670.151 548.631 647.341 552.573 645.793C553.243 645.059 559.272 638.011 559.423 637.747C565.974 626.298 576.002 623.022 585.25 614.881C580.867 615.678 547.919 640.543 542.333 643.968C537.252 647.083 529.52 655.667 523.778 658.664C523.777 657.514 524.612 657.088 525.66 655.945L525.224 654.741C526.579 651.679 525.944 649.317 528.277 645.408C536.319 631.935 544.56 630.217 544.255 613C541.491 612.994 538.727 612.952 535.964 612.874C539.424 612.344 544.965 612.447 548.796 612.205C545.323 611.795 538.492 611.989 534.762 611.988L534.914 591.235C539.127 591.214 544.166 591.32 548.295 590.931L548.625 590.469C552.184 589.755 562.602 591.174 564.397 588.978C570.407 581.628 577.05 574.029 582.931 566.537C586.104 562.495 586.087 560.884 585.179 556.372C580.58 554.353 572.799 557.984 567.462 555.441C561.621 555.341 551.032 556.628 545.528 554.086C544.934 553.812 544.829 551.158 544.822 550.377C544.573 522.994 544.677 495.584 544.683 468.202C544.683 466.698 545.028 466.727 545.967 465.704C547.627 465.115 549.172 464.9 550.926 464.814C556.28 464.552 601.476 464.34 603.537 465.318C604.251 465.657 604.408 466.824 604.66 467.543L604.987 467.361L605.073 465.482C606.999 464.306 631.428 464.946 635.442 464.999C637.522 469.874 639.313 474.567 641.19 479.515C646.391 471.258 660.586 456.522 667.271 448.599C683.126 429.807 698.949 413.125 713.352 393.086C713.22 388.699 705.364 368.976 703.144 365.067C701.586 364 701.257 364.258 699.321 364.164C688.749 363.648 681.267 350.177 678.484 341.028C678.605 338.343 678.512 333.625 680.324 331.719L680.939 331.83L680.824 332.604C680.29 336.293 680.269 338.715 681.534 342.368L681.953 342.59L682.331 341.896L682.053 339.756C680.645 329.314 690.685 319.876 691.644 309.462C692.333 301.976 690.442 301.246 692.85 293.394L694.758 290.886C693.779 293.798 692.634 298.623 694.445 301.252L695.759 301.434C696.649 299.171 691.621 293.67 696.694 291.362C697.467 292.806 696.798 297.012 696.924 299.393L697.482 299.362C699.697 296.592 697.344 291.449 698.167 288.837C701.125 287.833 701.39 286.904 702.325 284.029C702.523 283.421 702.648 283.346 703.01 282.797L703.93 283.547C709.641 278.703 708.84 275.053 717.529 274.631Z"/><path fill="#3C2D5B" d="M760.09 547.357L760.539 555.463C766.305 555.403 776.052 554.906 781.385 555.189C779.949 555.913 776.184 555.649 774.366 555.638C776.636 561.323 779.409 567.725 781.297 573.464C788.694 591.003 797.076 607.785 804.715 625.149C815.362 649.35 826.184 675.437 838.737 698.735C833.317 697.261 811.168 695.003 809.4 693.271L808.417 693.17L808.365 693.509C812.622 698.009 820.533 693.872 824.933 696.954C828.029 699.121 828.136 699.005 831.566 697.616C832.188 697.909 832.568 697.84 832.743 698.619C835.024 708.801 827.718 765.152 820.503 768.576C818.427 768.285 817.081 767.074 815.478 765.697C813.779 766.066 814.681 766.089 812.72 764.944L814.131 768.432C815.14 770.954 815.75 786.097 815.969 789.72L816.371 789.716C816.314 782.369 816.12 775.48 816.262 768.11L816.588 767.892C821.366 772.814 826.995 772.044 832.582 773.975C839.744 776.449 848.618 779.084 855.469 782.15L855.774 782.638C858.63 787.299 865.5 800.659 866.357 805.643C870.316 806.309 885.196 806.002 890.084 806L941.852 805.98C948.62 805.977 962.715 805.584 969.036 806.221C964.943 806.736 956.397 806.492 951.968 806.481L921.824 806.434L817.146 806.445L592.808 806.426C550.623 806.415 507.493 806.85 465.361 806.302C461.934 804.24 417.603 806.548 409.095 805.275L408.754 804.643C410.862 800.183 420.026 791.489 423.371 787.366C424.347 786.696 424.653 784.194 425.133 783.572C439.384 765.079 454.515 745.254 469.947 727.846C486.034 709.701 504.103 693.436 520.454 675.729C524.09 671.791 546.085 653.104 546.852 651.623C543.864 652.193 524.03 671.721 520.078 674.743C523.272 670.151 548.631 647.341 552.573 645.793C554.823 644.569 559.702 640.715 561.988 639.082C568.657 634.316 575.232 629.453 582.521 625.627C587.216 621.966 597.752 616.569 603.2 612.905C605.105 611.624 607.324 611.625 609.497 612.355C611.618 610.524 612.385 610.452 615.076 610.093C619.3 612.195 620.961 611.976 625.627 611.147C627.699 608.408 628.23 607.974 628.78 604.561C627.726 602.448 626.33 602.775 625.949 600.824L627.37 599.385L627.898 596.654L629.847 595.14C631.027 588.76 672.983 567.267 681.594 565.992C686.524 565.262 693.813 559.538 697.427 558.615L697.977 556.682C700.162 556.149 702.459 556.027 703.74 554.637C704.75 556.252 704.096 555.662 705.714 556.539C713.384 556.568 724.634 556.823 731.944 555.965C733.634 557.25 735.055 556.866 737.519 556.954C744.547 556.236 752.947 555.476 759.934 555.344C759.807 552.152 759.825 550.554 760.09 547.357Z"/><path fill="#31244C" d="M753.055 567.144L753.406 565.509C756.287 564.844 763.505 569.504 765.488 571.685C769.115 575.656 779.296 593.147 781.69 598.175C793.078 622.094 800.147 649.21 805.695 675.05C806.752 680.05 808.778 688.511 809.4 693.271L808.417 693.17C805.279 690.251 803.519 680.937 801.816 676.537C797.091 664.334 792.602 651.968 787.392 639.955C785.233 634.977 782.937 628.589 780.269 623.924C777.086 614.484 770.168 602.384 765.704 593.205C761.867 585.319 753.506 576.261 753.055 567.144Z"/><path fill="#31244C" d="M753.055 567.144L753.406 565.509C756.287 564.844 763.505 569.504 765.488 571.685C764.652 572.367 764.014 573.66 763.404 574.649C759.337 574.935 756.182 568.355 753.055 567.144Z"/><path fill="#31244C" d="M629.847 595.14C631.027 588.76 672.983 567.267 681.594 565.992C686.524 565.262 693.813 559.538 697.427 558.615L697.572 561.131C697.696 561.703 698.008 562.963 698.055 563.481C696.635 570.875 695.721 567.689 690.632 570.912C682.832 573.64 648.401 587.681 644.316 593.563C638.71 589.673 634.56 590.564 630.417 595.682L629.847 595.14Z"/><path fill="white" d="M630.417 595.682C634.56 590.564 638.71 589.673 644.316 593.563C647.482 600.064 641.468 603.995 637.009 607.981C639.295 608.01 643.519 607.92 645.588 608.395C646.369 609.635 646.28 608.973 646.065 610.38C643.987 612.265 633.387 612.272 631.511 610.989L631.196 610.414C630.233 608.567 630.855 608.862 629.507 608.332C628.346 609.32 627.046 611.391 625.627 611.147C627.699 608.408 628.23 607.974 628.78 604.561C627.726 602.448 626.33 602.775 625.949 600.824L627.37 599.385L627.898 596.654L629.847 595.14L630.417 595.682Z"/><path fill="#2A416B" d="M629.847 595.14L630.417 595.682C632.957 596.768 633.647 596.758 635.999 595.319L635.548 597.003C636.876 596.211 637.079 595.886 638.598 596.018C640.197 597.435 639.933 599.001 639.926 601.065C639.323 601.695 638.452 602.718 637.762 603.146C635.447 605.368 632.688 607.644 631.196 610.414C630.233 608.567 630.855 608.862 629.507 608.332C628.346 609.32 627.046 611.391 625.627 611.147C627.699 608.408 628.23 607.974 628.78 604.561C627.726 602.448 626.33 602.775 625.949 600.824L627.37 599.385L627.898 596.654L629.847 595.14Z"/><path fill="#3C2D5B" d="M629.847 595.14L630.417 595.682C632.957 596.768 633.647 596.758 635.999 595.319L635.548 597.003L634.801 597.75C632.362 601.983 628.938 600.526 629.098 604.664L628.78 604.561C627.726 602.448 626.33 602.775 625.949 600.824L627.37 599.385L627.898 596.654L629.847 595.14Z"/><path fill="#31244C" d="M629.847 595.14L630.417 595.682C632.957 596.768 633.647 596.758 635.999 595.319L635.548 597.003L634.801 597.75C632.164 597.859 629.626 597.734 627.622 599.318C627.538 599.34 627.454 599.362 627.37 599.385L627.898 596.654L629.847 595.14Z"/><path fill="#31244C" d="M629.098 604.664C635.241 605.717 633.503 603.598 637.762 603.146C635.447 605.368 632.688 607.644 631.196 610.414C630.233 608.567 630.855 608.862 629.507 608.332C628.346 609.32 627.046 611.391 625.627 611.147C627.699 608.408 628.23 607.974 628.78 604.561L629.098 604.664Z"/><path fill="#3C2D5B" d="M635.999 595.319C637.108 594.204 636.427 594.626 638.311 594.398C642.124 595.638 641.998 598.31 639.926 601.065C639.933 599.001 640.197 597.435 638.598 596.018C637.079 595.886 636.876 596.211 635.548 597.003L635.999 595.319Z"/><path fill="#3C2D5B" d="M703.74 554.637C704.75 556.252 704.096 555.662 705.714 556.539C713.384 556.568 724.634 556.823 731.944 555.965C733.634 557.25 735.055 556.866 737.519 556.954C728.824 557.859 721.189 560.589 712.73 562.663C710.345 563.248 707.14 564.296 704.851 564.765C703.253 565.092 701.035 563.335 698.055 563.481C698.008 562.963 697.696 561.703 697.572 561.131L697.427 558.615L697.977 556.682C700.162 556.149 702.459 556.027 703.74 554.637Z"/><path fill="#2A416B" d="M703.74 554.637C704.75 556.252 704.096 555.662 705.714 556.539C706.515 557.958 706.952 558.384 706.711 559.982C704.473 562.256 700.707 561.023 697.572 561.131L697.427 558.615L697.977 556.682C700.162 556.149 702.459 556.027 703.74 554.637Z"/><path fill="#3C2D5B" d="M760.09 547.357L760.539 555.463C766.305 555.403 776.052 554.906 781.385 555.189C779.949 555.913 776.184 555.649 774.366 555.638C776.636 561.323 779.409 567.725 781.297 573.464L780.739 573.632C778.715 570.07 775.479 558.348 773.201 556.384C768.631 555.535 764.725 555.925 760.119 556.067C737.025 556.78 713.146 561.386 691.964 571.063L691.347 571.35L690.632 570.912C695.721 567.689 696.635 570.875 698.055 563.481C701.035 563.335 703.253 565.092 704.851 564.765C707.14 564.296 710.345 563.248 712.73 562.663C721.189 560.589 728.824 557.859 737.519 556.954C744.547 556.236 752.947 555.476 759.934 555.344C759.807 552.152 759.825 550.554 760.09 547.357Z"/><path fill="#3C2D5B" d="M582.521 625.627C587.216 621.966 597.752 616.569 603.2 612.905C605.105 611.624 607.324 611.625 609.497 612.355C607.695 614.325 588.142 627.335 585.152 628.941L584.896 628.493C587.046 625.244 595.234 620.301 598.715 618.573L598.544 617.665C595.171 616.798 586.524 626.018 582.521 625.627Z"/><path fill="#3C2D5B" d="M618.31 620.84L618.892 621.416C617.737 622.641 617.038 623.519 616.786 625.262C615.868 631.601 614.505 637.435 618.452 643.139C619.117 644.1 619.314 644.034 619.264 645.192C614.935 646.469 615.165 646.655 612.53 650.212C609.315 654.55 607.941 658.577 606.336 663.678L606.073 663.538L605.758 659.799C604.371 662.084 604.326 663.278 603.989 665.9C603.169 668.132 603.936 668.485 602.715 669.937C601.991 668.32 602.37 662.232 603.339 660.822C606.1 656.806 607.365 650.47 611.11 647.336C612.062 646.54 616.323 645.735 617.34 644.517C618.022 643.578 615.745 639.517 615.422 638.113C614.046 632.123 613.274 625.345 618.31 620.84Z"/><path fill="#3C2D5B" d="M701.511 735.277C704.46 737.095 707.987 742.962 706.688 746.339L705.063 745.925C703.467 743.166 700.606 738.452 701.511 735.277Z"/><path fill="white" d="M567.462 555.441C561.621 555.341 551.032 556.628 545.528 554.086C544.934 553.812 544.829 551.158 544.822 550.377C544.573 522.994 544.677 495.584 544.683 468.202C544.683 466.698 545.028 466.727 545.967 465.704C547.627 465.115 549.172 464.9 550.926 464.814C556.28 464.552 601.476 464.34 603.537 465.318C604.251 465.657 604.408 466.824 604.66 467.543L604.987 467.361C606.503 470.707 616.332 491.92 616.895 494.237C619.255 499.214 621.201 504.129 623.263 509.23C614.001 514.316 615.16 522.322 607.524 523.608C606.884 523.716 604.061 521.652 603.17 521.024C598.856 523.801 581.51 522.394 575.07 522.496L575.067 530.574C581.13 530.473 611.438 529.564 614.999 531.201C616.867 533.857 616.955 551.895 615.4 554.743C611.631 556.308 574.485 555.45 567.462 555.441Z"/><path fill="#2A416B" d="M604.987 467.361C606.503 470.707 616.332 491.92 616.895 494.237C619.255 499.214 621.201 504.129 623.263 509.23C614.001 514.316 615.16 522.322 607.524 523.608C606.884 523.716 604.061 521.652 603.17 521.024L603.447 517.901C602.776 513.784 603.109 502.386 603.14 497.876C596.134 497.241 582.569 497.918 575.125 498.09L575.086 490.06C583.451 490.17 592.157 490.344 600.513 490.624C606.311 490.819 604.256 472.536 604.614 468.055L604.66 467.543L604.987 467.361Z"/><path fill="#3C2D5B" d="M616.895 494.237C619.255 499.214 621.201 504.129 623.263 509.23C614.001 514.316 615.16 522.322 607.524 523.608C606.884 523.716 604.061 521.652 603.17 521.024L603.447 517.901C603.818 515.466 603.705 508.97 603.724 506.224C609.258 502.447 613.727 496.185 616.895 494.237Z"/><path fill="white" d="M670.264 463.885C674.649 463.881 698.971 463.302 701.168 464.783C701.458 468.146 665.063 547.519 660.425 556.48L642.963 556.517C636.652 540.649 630.084 524.885 623.263 509.23C621.201 504.129 619.255 499.214 616.895 494.237C616.332 491.92 606.503 470.707 604.987 467.361L605.073 465.482C606.999 464.306 631.428 464.946 635.442 464.999C637.522 469.874 639.313 474.567 641.19 479.515C644.787 488.483 648.233 497.51 651.526 506.594C657.314 493.855 664.366 475.681 670.264 463.885Z"/><path fill="white" d="M738.524 464.131C747.039 463.688 757.045 463.933 765.666 463.948L810.622 464.024L810.517 488.867C804.03 488.839 797.542 488.742 791.057 488.575L791.406 555.099L781.385 555.189C776.052 554.906 766.305 555.403 760.539 555.463L760.09 547.357C760.397 528.586 759.978 508.992 760.048 490.11C753.249 490.079 745.352 490.24 738.645 489.96C738.355 483.737 738.161 470.406 738.524 464.131Z"/><path fill="white" d="M703.74 554.637C703.011 536.277 703.938 515.657 703.726 497.137C703.656 490.976 703.481 470.725 704.202 465.436C706.491 463.167 729.893 463.094 732.366 465.601C732.853 471.776 732.54 480.521 732.495 486.888L732.362 520.338L732.262 543.402C732.249 546.52 732.446 553.181 731.944 555.965C724.634 556.823 713.384 556.568 705.714 556.539C704.096 555.662 704.75 556.252 703.74 554.637Z"/><path fill="#3C2D5B" d="M625.199 591.9C640.142 578.584 678.959 562.975 697.977 556.682L697.427 558.615C693.813 559.538 686.524 565.262 681.594 565.992C672.983 567.267 631.027 588.76 629.847 595.14L627.898 596.654C627.202 594.056 627.02 593.889 625.199 591.9Z"/><path fill="#3C2D5B" d="M678.484 341.028C678.605 338.343 678.512 333.625 680.324 331.719L680.939 331.83L680.824 332.604C680.29 336.293 680.269 338.715 681.534 342.368L681.953 342.59L682.331 341.896C683.13 342.843 683.381 343.602 684.392 344.272L684.647 344.051L686.094 345.235C682.877 340.908 684.232 338.85 683.285 334.078C682.202 336.564 683.732 339.345 682.545 339.997C682.095 337.627 681.789 334.194 683.159 332.105L684.283 331.532L684.694 331.962C683.944 338.358 684.13 340.782 688.55 345.342L688.285 345.974L686.213 346.588C686.993 347.501 686.856 347.372 688.04 347.908C692.769 350.047 693.88 356.054 697.212 359.6C698.836 361.457 703.07 361.179 703.889 363.703C706.115 370.562 711.004 379.443 712.862 386.171C715.334 395.127 715.459 394.641 721.699 402.256C717.662 398.655 716.571 397.438 713.352 393.086C713.22 388.699 705.364 368.976 703.144 365.067C701.586 364 701.257 364.258 699.321 364.164C688.749 363.648 681.267 350.177 678.484 341.028Z"/><path fill="white" d="M615.076 610.093C613.999 608.262 613.32 607.045 613.594 604.95C617.82 599.397 615.358 601.632 614.903 595.421C614.53 590.327 622.207 591.234 625.199 591.9C627.02 593.889 627.202 594.056 627.898 596.654L627.37 599.385L625.949 600.824C626.33 602.775 627.726 602.448 628.78 604.561C628.23 607.974 627.699 608.408 625.627 611.147C620.961 611.976 619.3 612.195 615.076 610.093Z"/><path fill="#31244C" d="M618.362 602.975C621.019 602.81 623.163 602.609 624.561 605.153C624.425 607.067 624.144 607.236 622.969 608.715C620.248 608.972 619.023 609.241 617.36 606.829C617.128 605.006 617.519 604.603 618.362 602.975Z"/><path fill="#31244C" d="M620.437 594.031C622.019 593.681 623.588 594.667 623.959 596.244C624.33 597.821 623.365 599.404 621.793 599.796C620.757 600.054 619.663 599.735 618.929 598.96C618.194 598.186 617.933 597.077 618.245 596.056C618.558 595.036 619.395 594.262 620.437 594.031Z"/><path fill="#3C2D5B" d="M717.529 274.631C721.984 263.899 729.869 258.656 738.545 251.257C740.643 249.468 745.743 246.354 748.274 245.453C749.905 244.873 753.446 244.857 754.894 243.923C765.702 236.954 778.522 231.394 791.641 232.641C793.237 232.793 793.902 233.391 794.785 234.666C794.806 235.951 794.681 236.784 795.324 237.887C796.737 238.453 801.394 238.011 803.201 237.847C806.96 237.505 816.94 238.689 818.992 241.872C818.463 242.89 818.507 242.824 817.599 243.53C820.117 246.01 825.522 247.391 827.087 249.775L826.648 250.277C823.794 248.088 817.242 246.405 816.313 243.747C816.992 242.788 817.272 242.615 817.587 241.495C814.436 241.048 810.976 238.816 808.849 238.661C803.381 238.262 791.717 241.036 786.823 239.766L786.523 239.169C788.623 238.91 790.298 238.964 792.388 238.979C793.561 237.328 792.697 236.75 794.194 234.877C791.78 234.085 786.195 233.855 783.591 234.139L783.235 234.5L783.244 235.74L782.614 235.823C780.821 232.941 780.071 234.518 777.006 235.066C766.198 236.996 758.379 244.361 748.059 247.297L748.559 246.79C739.502 250.727 732.008 257.721 724.753 264.588C721.436 267.728 715.457 283.419 711.191 284.065L710.683 283.408C711.879 280.638 714.296 282.229 715.427 277.58C715.57 276.967 715.697 276.35 715.809 275.73C714.98 276.159 715.178 276.254 714.527 277.28L713.869 276.247C711.1 276.13 705.538 282.252 705.093 284.967C705.651 287.719 706.598 288.368 706.716 291.437L706.07 292.395C701.623 291.664 702.2 287.129 702.325 284.029C702.523 283.421 702.648 283.346 703.01 282.797L703.93 283.547C709.641 278.703 708.84 275.053 717.529 274.631Z"/><path fill="white" d="M534.914 591.235C539.127 591.214 544.166 591.32 548.295 590.931C547.469 593.656 548.024 593.313 546.187 594.837C543.42 595.586 539.243 592.759 538.351 597.748C540.046 600.799 544.209 598.774 547.014 600.784L547.028 601.928C544.025 604.821 540.083 600.951 538.418 605.067C538.699 606.768 538.616 607.075 539.569 608.526C542.782 609.648 545.371 606.657 548.395 609.321C548.689 610.621 548.732 610.877 548.796 612.205C545.323 611.795 538.492 611.989 534.762 611.988L534.914 591.235Z"/><path fill="white" d="M846.339 462.681C857.135 460.854 870.342 465.077 880.008 469.561C878.131 477.825 876.173 485.146 873.281 493.118C868.664 490.366 848.331 481.208 845.54 489.449C846.048 495.273 856.792 497.101 861.556 498.649C874.309 502.791 882.563 507.595 883.563 522.336C885.079 544.689 869.509 555.355 849.249 556.531C836.806 556.718 825.545 555.34 815.056 548.18C816.611 539.631 819.088 532.026 821.83 523.83C827.445 527.923 833.27 531.109 840.193 532.311C843.579 532.898 853.275 532.658 853.859 528.123C849.298 519.408 818.453 519.49 816.571 499.207C814.561 477.543 825.485 465.495 846.339 462.681Z"/><path fill="white" d="M551.753 591.311C556.985 591.181 561.137 590.716 565.729 593.792C571.408 597.597 570.737 604.266 567.091 609.342C562.193 612.846 557.839 612.111 551.94 612.04L551.753 591.311Z"/><path fill="#31244C" d="M555.893 595.08C563.873 595.106 567.404 598.561 564.129 606.419C553.576 612.737 555.671 601.867 555.893 595.08Z"/><path fill="#3C2D5B" d="M862.822 568.65C864.163 566.614 865.103 563.595 867.682 562.934C869.397 564.621 869.146 569.176 869.227 571.734C872.558 573.648 876.853 573.735 879.574 575.908L879.268 576.414C876.463 576.956 873.621 577.154 870.985 577.876C873.792 578.825 883.883 580.892 881.087 585.824C880.45 586.947 879.57 587.654 878.306 588C876.503 587.26 876.094 586.593 875.251 584.613L874.87 583.695C873.586 583.41 873.503 583.568 872.463 582.8L871.515 584.346C869.625 582.178 871.573 579.547 868.687 577.498C867.166 579.889 869.681 586.212 869.529 589.568C868.544 586.854 868.012 584.765 866.324 582.472L864.126 581.271L863.122 582.657L864.366 583.749L863.017 584.4C861.143 584.086 860.582 583.179 859.343 581.705L858.777 581.021L857.12 582.49L856.1 582.417C854.519 580.96 853.211 578.399 853.001 576.31C854.841 576.51 856.291 578.596 859.188 579.602L860.198 579.076C861.286 574.529 856.306 576.015 854.958 572.26C855.936 569.413 860 568.16 862.822 568.65Z"/><path fill="#31244C" d="M863.969 576.67C862.533 575.316 863.367 575.573 862.641 574.357C861.244 572.019 858.778 574.287 857.434 571.224C860.045 567.918 870.563 573.338 873.129 575.487L872.826 576.07C870.36 576.434 869.622 576.261 867.195 575.661L866.324 582.472L864.126 581.271L863.472 581.014L861.911 581.744L860.872 581.336L860.5 580.042C860.944 578.289 860.477 578.925 861.678 577.903L862.721 578.157L863.809 580.05C863.983 578.809 863.952 577.914 863.969 576.67Z"/><path fill="#31244C" d="M862.822 568.65C864.163 566.614 865.103 563.595 867.682 562.934C869.397 564.621 869.146 569.176 869.227 571.734C867.03 571.039 864.476 570.281 862.822 568.65Z"/><path fill="#31244C" d="M877.438 581.065C880.076 582.602 880.005 583.657 879.59 586.449C878.024 586.102 877.359 586.125 876.287 584.946C876.138 582.908 876.395 583.21 877.438 581.065Z"/><path fill="white" d="M601.036 591.028C611.785 590.826 612.24 599.871 607.222 607.353C604.933 610.767 603.765 611.681 599.772 612.305C599.391 610.784 599.367 610.862 599.518 609.314L600.736 608.583C602.283 607.661 604.679 606.821 604.248 604.826L601.882 604.354C593.06 602.644 593.591 594.204 601.036 591.028Z"/><path fill="#31244C" d="M601.973 594.36C603.305 593.968 604.744 594.334 605.727 595.314C606.71 596.295 607.079 597.733 606.691 599.066C606.302 600.399 605.217 601.413 603.861 601.711C601.863 602.151 599.876 600.929 599.367 598.947C598.858 596.965 600.011 594.937 601.973 594.36Z"/><path fill="white" d="M589.573 590.959L590.126 591.296C591.137 593.582 591.443 610.284 589.572 612.332C587.667 612.444 588.572 612.611 586.79 611.679L586.593 609.625C586.583 607.319 587.416 597.74 585.918 596.559C584.467 597.074 584.253 597.243 582.688 597.298L581.669 596.321L581.758 595.351C583.687 592.864 586.66 592.006 589.573 590.959Z"/><defs><linearGradient id="gradient_1" gradientUnits="userSpaceOnUse" x1="440.64621" y1="782.81561" x2="382.85379" y2="760.18439"><stop offset="0" stop-color="#262960"/><stop offset="1" stop-color="#1E3D65"/></linearGradient></defs><path fill="url(#gradient_1)" d="M439.87 738.306C437.36 736.314 434.67 735.83 434.88 732.014C434.993 729.974 435.171 727.527 436.736 726.039L437.19 726.381C436.892 728.675 435.111 730.14 435.109 731.694C435.104 735.15 440.709 735.195 439.755 739.094C438.537 739.844 438.161 740.035 437.073 741.005L437.39 742.1C445.795 744.208 453.865 739.642 461.017 735.937C459.893 738.597 451.243 748.966 448.978 751.809C438.533 764.92 427.702 777.657 417.777 791.222C414.487 795.719 409.343 801.635 406.586 806.099C398.296 806.588 376.316 806.484 368.235 806.074L364.514 805.741C367.11 798.562 378.933 783.579 384.383 777.903C388.75 773.66 393.662 768.335 398.2 764.495C411.133 753.551 425.205 746.359 439.87 738.306Z"/><path fill="#015B6A" d="M391.114 794.021C392.996 793.744 393.92 793.308 395.228 794.798C395.558 797.183 393.58 799.577 392.236 801.584C389.594 802.065 387.951 802.193 385.324 802.369L387.399 801.527L387.385 800.051C385.144 799.41 385.049 799.913 383.568 798.543C384.625 796.316 388.797 794.933 391.114 794.021Z"/><path fill="#31244C" d="M828.678 220.56L968.683 220.373L968.63 247.404C965.237 245.699 957.075 245.594 952.706 244.825C919.565 238.682 886.123 234.3 852.519 231.696C853.358 231.564 854.196 231.423 855.033 231.272L854.98 230.585C850.074 227.154 839.47 228.675 834.522 224.76L830.315 221.496C828.307 221.533 826.298 221.511 824.291 221.431C825.095 220.844 827.505 220.709 828.678 220.56Z"/><path fill="#3C2D5B" d="M364.514 805.741C361.173 805.967 351.133 806.174 348.296 805.574C344.039 794.476 365.572 771.291 377.51 771.907C380.567 772.065 382.61 775.622 384.383 777.903C378.933 783.579 367.11 798.562 364.514 805.741Z"/><path fill="#3C2D5B" d="M689.247 301.171C690.188 298.416 691.016 295.624 692.85 293.394C690.442 301.246 692.333 301.976 691.644 309.462C690.685 319.876 680.645 329.314 682.053 339.756L682.331 341.896L681.953 342.59L681.534 342.368C680.269 338.715 680.29 336.293 680.824 332.604L680.939 331.83L680.324 331.719C678.512 333.625 678.605 338.343 678.484 341.028C676.65 334.724 681.773 322.184 684.808 316.198C685.791 314.26 687.048 314.463 687.287 311.822C685.772 309.35 684.901 309.007 686.341 306.496C687.835 308.044 688.273 309.125 690.038 309.666C691.161 307.349 689.915 303.681 689.247 301.171Z"/><path fill="#3C2D5B" d="M455.175 727.987L453.882 729.259L453.574 728.913L453.801 728.367C454.975 725.489 455.672 720.61 457.695 719.552C459.817 721.087 460.975 725.414 463.644 724.427C466.905 723.221 469.664 722.839 472.23 720.539C473.379 720.308 473.312 720.26 474.413 720.623L475.712 719.378L475.91 719.937C473.307 723.522 469.654 727.051 466.433 730.129L466.254 729.218C464.309 729.454 445.152 737.351 442.2 738.909L441.538 738.127C442.775 736.789 448.198 735.76 450.418 734.049C455.362 730.241 457.48 733.839 456.729 725.925L456.247 725.551C455.888 726.397 455.567 727.154 455.175 727.987Z"/><path fill="#3C2D5B" d="M466.433 730.129C464.952 732.153 463.255 734.858 461.017 735.937C453.865 739.642 445.795 744.208 437.39 742.1C438.505 742.076 442.255 742.057 442.877 741.307L441.106 740.638L440.857 739.971C443.862 737.799 463.622 732.551 466.433 730.129Z"/><path fill="#3C2D5B" d="M826.5 246.583C831.017 246.898 846.751 253.197 848.532 258.343C841.912 256.348 834.991 249.919 827.076 247.655L826.5 246.583Z"/><path fill="white" d="M134.876 464.686L161.794 464.661C167.726 464.664 176.485 464.482 182.206 465.332C186.296 465.9 190.273 467.102 193.992 468.897C219.008 481.084 217.783 515.361 193.388 527.336C190.839 528.587 188.237 529.353 185.526 530.18C178.89 531.471 171.768 531.288 164.997 531.329C165.072 539.574 165.081 547.818 165.024 556.062L135.017 556.24C135.017 526.393 134.312 494.306 134.876 464.686Z"/><path fill="#015B6A" d="M165.028 490.884C170.418 490.796 178.137 489.971 182.266 494.028C185.449 497.156 182.836 501.88 180.486 504.631C177.642 506.086 167.753 507.193 165.15 505.46L164.965 504.01L165.028 490.884Z"/><path fill="white" d="M244.118 463.254C248.738 466.991 288.597 545.969 293.752 556.171C272.563 556.663 248.851 556.096 227.473 556.038C230.768 548.499 234.729 540.877 238.432 533.496L253.851 533.53L250.787 527.678C248.126 522.589 246.267 517.389 243.38 512.455C235.702 526.514 229.097 541.734 221.15 556.01L190.972 556.002C206.525 526.017 226.44 492.528 244.118 463.254Z"/><path fill="white" d="M527.171 520.598C529.455 523.756 540.492 545.953 540.311 549.256C538.48 552.112 535.044 552.904 531.943 553.826C504.673 561.94 470.923 552.589 463.034 521.883C459.811 509.823 461.549 496.976 467.86 486.205C476.877 471.025 494.022 462.891 511.428 463.385C521.07 463.659 531.625 464.344 540.102 469.377C538.948 474.449 534.506 484.108 532.365 489.471C532.651 490.659 531.034 498.765 530.688 499.352C529.153 500.155 529.958 500.008 528.172 499.705L527.454 499.099C518.648 491.115 509.332 484.838 497.598 494.263C489.547 500.865 489.379 517.748 497.101 524.493C508.284 534.262 518.559 529.612 527.171 520.598Z"/><path fill="#3C2D5B" d="M532.365 489.471C532.651 490.659 531.034 498.765 530.688 499.352C529.153 500.155 529.958 500.008 528.172 499.705L527.454 499.099C529.636 496.004 530.838 492.927 532.365 489.471Z"/><path fill="white" d="M258.99 464.576L290.556 464.684C296.363 478.322 301.58 492.299 307.419 505.87C313.634 492.347 319.29 478.32 325.07 464.596C335.605 464.568 346.14 464.658 356.672 464.865C353.198 474.43 341.89 496.606 336.974 506.17C328.799 521.853 321.326 537.967 313.298 553.729C311.124 557.997 309.04 562.298 306.435 566.324C297.927 547.404 289.414 528.78 280.279 510.136C272.892 495.061 266.543 479.622 258.99 464.576Z"/><path fill="white" d="M360.663 464.756C369.556 464.634 378.451 464.646 387.343 464.793L387.183 528.108C398.637 528.047 410.092 528.05 421.546 528.119C421.569 531.936 422.117 552.853 420.913 554.871L419.625 555.061L358.679 555.387C358.615 546.499 358.129 467.222 359.287 464.948L360.663 464.756Z"/><path fill="white" d="M426.635 464.918L455.673 464.965L455.565 554.968L426.641 555.029L426.635 464.918Z"/><path fill="#3C2D5B" d="M413.75 590.984L414.1 590.246C416.316 589.828 417.967 590.362 420.201 590.802C423.132 590.6 425.59 590.135 428.045 591.791L428.492 592.937C425.763 596.881 423.246 592.46 420.279 595.97C421.038 600.161 433.373 602.588 429.283 608.96C426.035 614.019 420.094 613.077 415.666 610.543C414.636 611.626 415.24 611.188 413.613 611.549C411.86 612.355 402.98 612.045 400.524 612.03L400.535 590.959C404.94 590.913 409.345 590.921 413.75 590.984Z"/><path fill="white" d="M400.535 590.959C404.94 590.913 409.345 590.921 413.75 590.984C413.466 591.958 413.319 593.419 412.519 593.876C409.099 595.832 404.911 591.855 404.926 598.052C407.373 600.213 410.754 598.723 412.786 600.315C412.837 601.755 412.954 601.025 411.772 602.484C408.539 603.519 407.2 601.857 405.168 603.224C404.386 604.79 404.658 606.622 405.427 608.152C407.192 608.837 411.273 608.416 413.481 608.481L415.475 608.258L415.666 610.543C414.636 611.626 415.24 611.188 413.613 611.549C411.86 612.355 402.98 612.045 400.524 612.03L400.535 590.959Z"/><path fill="#2A416B" d="M413.481 608.481L415.475 608.258L415.666 610.543C414.636 611.626 415.24 611.188 413.613 611.549L413.481 608.481Z"/><path fill="white" d="M420.201 590.802C423.132 590.6 425.59 590.135 428.045 591.791L428.492 592.937C425.763 596.881 423.246 592.46 420.279 595.97C421.038 600.161 433.373 602.588 429.283 608.96C426.035 614.019 420.094 613.077 415.666 610.543L415.475 608.258C418.507 605.742 423.156 611.89 425.339 606.469C424.154 602.181 418.792 603.715 416.632 599.838C414.368 595.773 416.72 592.619 420.201 590.802Z"/><path fill="white" d="M466.627 591.003C479.838 590.874 481.294 591.579 478.765 600.159C478.13 602.312 482.644 602.329 480.019 609.899C476.367 612.714 470.99 612.055 466.484 611.995L466.627 591.003Z"/><path fill="#2A416B" d="M471.778 602.471C474.384 602.645 475.269 602.553 476.796 604.772C476.866 606.61 476.717 606.62 475.878 608.203C474.376 608.368 473.991 608.365 472.476 608.292C470.787 607.061 471.343 607.832 470.634 605.981C470.865 604.332 470.813 603.857 471.778 602.471Z"/><path fill="#2A416B" d="M471.128 594.061C472.844 594.225 474.426 594.164 475.643 595.293C476.316 596.861 476.011 597.416 475.626 599.087C473.217 599.348 473.335 599.71 471.424 598.882C470.611 597.401 470.99 595.83 471.128 594.061Z"/><path fill="white" d="M513.506 591.022C514.976 590.957 515.718 590.77 516.995 591.486C518.127 593.279 517.691 596.597 517.66 598.971L525.583 598.958C525.583 596.251 524.539 593.096 526.768 591.368C528.887 591.207 528.064 590.913 529.612 591.7C530.112 594.174 530.401 610.459 529.28 612.259C527.381 612.062 527.397 612.359 526.064 611.406C525.017 609.052 525.52 605.845 525.567 602.993L517.72 603.005C517.731 605.322 518.127 610.169 516.695 611.734C515.041 611.769 514.658 612.1 513.686 611.305C513.135 606.581 513.466 596.191 513.506 591.022Z"/><path fill="white" d="M452.496 591.005L456.051 591.003C457.683 592.047 464.281 609.257 462.461 612.293C460.736 612.399 461.245 612.345 459.477 611.393C458.975 609.959 458.77 609.294 457.868 608.036C455.992 608.018 452.538 607.763 450.979 608.454C450.489 609.833 450.27 610.917 449.229 611.918C447.6 612.173 447.438 612.346 445.906 611.702C445.789 611.387 445.673 611.071 445.556 610.755C447.745 605.407 450.857 595.972 452.496 591.005Z"/><path fill="#3C2D5B" d="M454.249 597.748C456.022 599.387 457.191 602.431 455.791 604.618C454.772 604.397 454.238 604.247 453.249 603.954C452.454 601.96 453.507 600.123 454.249 597.748Z"/><path fill="#3C2D5B" d="M487.518 659.087C491.641 659.252 510.779 666.742 511.744 670.642C511.353 672.226 510.525 672.796 509.36 673.996L508.854 674.511L508.882 675.256C510.791 676.861 511.623 677.159 511.056 679.685C509.028 674.239 494.18 666.578 488.062 665.782C485.962 665.508 485.194 665.701 483.683 663.982C484.213 662.319 486.215 660.516 487.518 659.087Z"/><path fill="white" d="M496.536 607.294L496.581 606.688C496.829 602.904 496.036 593.558 497.416 591.144C499.374 590.969 498.519 590.731 500.091 591.807C501.902 595.529 500.826 603.287 500.941 608.001C504.099 607.924 507.84 607.321 510.114 609.463C509.662 613.174 498.816 612.303 496.382 611.481L495.837 611.352L495.406 610.549C495.576 608.711 495.521 608.831 496.536 607.294Z"/><path fill="#383C3C" d="M496.382 611.481L495.837 611.352L495.406 610.549C495.576 608.711 495.521 608.831 496.536 607.294C496.523 608.657 496.56 610.141 496.382 611.481Z"/><path fill="white" d="M431.1 591.014C435.504 591.015 442.263 590.038 445.929 591.781C446.791 593.191 446.693 592.47 446.347 593.995C444.775 594.839 442.544 594.551 440.676 594.516C440.552 598.333 440.624 602.503 440.614 606.349C440.655 608.245 440.888 610.082 440.127 611.782C438.245 612.078 439.075 612.234 437.511 611.608C435.655 608.481 436.425 598.96 436.467 594.594C434.568 594.642 433.143 594.807 431.304 594.313C430.46 592.862 430.78 593.145 431.1 591.014Z"/><path fill="white" d="M484.89 590.997C486.592 591.016 486.985 590.787 488.363 591.523C488.932 595.445 488.707 603.809 488.711 608.071C490.671 607.99 492.329 607.792 494.239 608.233C495.477 609.679 495.057 609.394 495.057 611.895L484.629 611.973L484.89 590.997Z"/></svg>