<?xml version="1.0" encoding="utf-8" ?><svg xmlns="http://www.w3.org/2000/svg" xmlns:xlink="http://www.w3.org/1999/xlink" width="1024" height="1024" viewBox="0 0 1024 1024"><path fill="white" d="M0 0L1024 0L1024 1024L0 1024L0 0Z"/><path fill="#303C59" d="M320.347 539.071C373.121 538.248 427.605 538.986 480.545 538.989L858.014 538.815C907.481 538.741 957.976 539.546 1007.3 538.922L1007.29 700.843C1007.24 726.403 1007.69 752.527 1007.13 778.024L448.996 778.002L295.402 777.883C269.064 777.878 241.735 778.299 215.482 777.884C191.865 778.356 166.404 777.821 142.655 777.779L14.993 777.857L14.97 539.084L216.403 539.004C250.455 538.995 286.541 538.327 320.347 539.071Z"/><path fill="#015B6A" d="M14.97 539.084L216.403 539.004C250.455 538.995 286.541 538.327 320.347 539.071C320.216 539.14 320.085 539.21 319.954 539.279C274.919 539.649 229.726 539.812 184.654 540.288C183.504 540.3 178.799 545.558 177.997 546.809L178.036 547.58L179.217 548.44C179.235 552.843 174.799 552.6 172.771 555.621C169.571 560.387 170.36 573.389 163.335 574.617C161.283 574.743 157.244 574.213 157.409 577.168C157.858 585.196 164.654 587.169 157.301 594.576C154.434 597.464 146.435 603.581 146.358 607.425C146.287 610.943 142.421 614.363 141.581 616.99C140.835 619.323 143.892 633.293 143.427 635.196L142.764 634.881C140.934 629.386 139.179 631.546 135.9 627.623C135.439 627.072 134.433 622.9 133.925 622.496C128.847 622.917 126.771 628.93 127.699 633.41C129.033 639.856 134.963 635.594 136.924 641.632C138.355 646.52 136.739 653.396 135.526 658.142C130.178 660.339 129.102 659.113 126.617 664.652C124.131 669.71 122.598 678.721 117.34 681.638C114.265 683.345 109.014 675.927 106.712 674.526C103.163 672.367 99.0143 672.829 98.236 667.774C97.6716 664.109 100.964 660.201 98.6261 657.254C98.305 657.152 94.2386 655.862 94.2544 655.875C93.1848 655.003 93.2262 653.751 91.2684 653.195C86.8538 656.429 84.9238 660.686 81.2037 660.482C77.8316 660.386 72.0661 655.849 69.0458 657.665C63.7759 660.835 58.1292 675.342 52.7039 676.482C47.4928 677.578 44.2997 663.856 39.7742 663.524C37.8353 663.382 36.7192 663.555 35.5495 662.086L35.8494 662.222C33.5591 662.901 32.6846 665.039 33.9938 666.985C37.1697 671.704 42.4705 672.764 42.6637 679.399C40.3088 683.485 42.8007 682.58 42.9052 687.151C42.2816 688.422 42.1417 688.318 40.8557 689.022C35.5029 686.791 33.362 681.856 29.7242 677.871C29.2368 677.337 26.1745 677.707 25.464 678.068C21.9832 679.837 24.3666 681.968 21.0973 683.926C20.5912 681.398 20.1352 678.613 19.3058 676.197C18.777 682.606 19.0386 691.143 18.1149 697.2L17.536 697.314C17.3929 696.419 17.2237 695.648 17.204 694.753C17.0987 697.202 16.7972 712.644 16.2126 713.572C15.458 712.614 15.7287 704.026 15.7203 702.064C14.8845 705.428 15.9178 730.971 15.9632 735.652C16.0958 749.319 16.0228 763.303 16 777L149.972 777.008C176.531 777.126 203.091 777.071 229.649 776.84L229.858 777.403L230.521 777.121L229.697 777.234C224.411 777.938 220.09 777.273 215.482 777.884C191.865 778.356 166.404 777.821 142.655 777.779L14.993 777.857L14.97 539.084Z"/><path d="M524.752 587.166C533.447 588.213 532.18 591.719 529.494 597.224C528.06 600.162 540.857 608.261 524.05 610.994C514.673 609.485 513.544 602.153 521.537 598.182C516.59 592.78 516.645 588.473 524.752 587.166Z"/><path fill="#3C2D5B" d="M522.574 589.506C528.699 589.1 530.501 592.007 526.933 596.974C521.906 597.411 517.889 593.949 522.574 589.506Z"/><path fill="#3C2D5B" d="M522.924 600.882C525.766 601.081 527.584 601.582 528.431 604.443C528.007 606.232 527.671 606.37 526.327 607.59C523.537 607.049 521.537 607.136 520.511 604.346C520.904 602.531 521.569 602.163 522.924 600.882Z"/><path d="M539.471 587.03C552.616 586.127 551.873 592.307 545.369 600.693C547.449 600.954 548.149 600.85 549.752 602.048C550.276 603.776 550.03 607.994 549.998 610C545.477 610.155 538.992 610.558 534.549 609.813C533.603 609.654 533.782 609.4 533.204 608.282C535.435 601.659 540.283 600.407 545.101 596.11C548.274 593.281 546.267 588.484 541.516 589.106C539.037 590.718 538.139 592.585 536.29 595.011L535.457 595.119C533.466 591.241 536.571 588.852 539.471 587.03Z"/><path fill="#3C2D5B" d="M540.888 603.489C543.745 603.451 547.037 603.098 547.125 606.864C546.226 607.531 546.423 607.295 545.125 607.477L537.333 607.516L540.888 603.489Z"/><path d="M504.746 587.122C521.162 587.467 510.736 603.023 505.094 608.962C503.363 610.784 503.634 610.271 501.195 610.487C502.082 607.375 506.11 602.726 508.178 600.233L505.978 600.122C497.137 599.725 494.242 589.896 504.746 587.122Z"/><path fill="#3C2D5B" d="M505.005 589.108C506.675 588.715 508.428 589.25 509.594 590.508C510.761 591.767 511.162 593.555 510.644 595.191C510.126 596.827 508.769 598.058 507.091 598.416C504.534 598.96 502.015 597.345 501.443 594.794C500.871 592.243 502.46 589.707 505.005 589.108Z"/><path d="M491.896 587.63C493.108 587.426 493.03 587.447 494.233 587.737C494.75 590.019 494.912 609.009 493.827 610.627C492.303 610.69 493.028 610.881 491.676 609.747L491.657 608.125L491.686 589.515C489.895 590.355 488.512 591.494 486.774 590.365L487.101 589.379C488.493 587.965 489.89 587.988 491.896 587.63Z"/><path fill="#015B6A" d="M133.502 628.299C134.05 628.383 134.408 628.835 134.977 629.285C135.577 630.79 136.232 634.304 136.336 635.937L135.193 636.679L134.434 635.923C134.052 631.253 132.417 633.8 131.588 630.799L133.502 628.299Z"/><path fill="#015B6A" d="M42.9936 691.346C46.2018 691.291 47.3195 692.306 47.5252 695.729C45.9662 695.785 43.1983 692.945 42.9936 691.346Z"/><path fill="#303C59" d="M660.482 163.619C671.572 163.391 682.256 169.164 686.676 179.992C688.469 184.386 687.07 186.726 685.132 190.669C685.698 193.831 685.535 196.311 685.469 199.511C687.689 201.777 691.224 204.556 690.731 207.927C685.865 213.897 672.556 204.607 669.481 213.357L670.002 213.829C671.872 213.225 672.944 211.501 674.24 209.937C677.497 213.072 682.758 217.921 682.881 222.578C683.2 234.706 666.511 232.911 667.193 246.282C667.558 253.435 668.517 259.741 669.467 266.74C670.582 275.146 671.651 283.557 672.674 291.974L1006.51 292.091L1006.51 345.526L402.648 345.837L14.1713 345.637L14.0726 292.015L500.931 291.999C500.807 260.958 488.726 256.85 528.527 258.494C528.236 246.215 527.583 222.614 544.048 221.15C550.388 207.992 546.563 210.251 560.335 201.935C576.445 192.207 592.339 184.217 611.621 183.259C620.79 182.803 628.798 186.831 637.669 185.678C641.808 185.085 642.34 177.291 645.415 173.248C649.822 167.454 653.336 165.093 660.482 163.619Z"/><path fill="white" d="M615.161 238.498C616.015 238.529 617.406 238.474 618.154 238.909C619.39 239.628 636.391 272.073 637.674 276.096C636.342 279.523 631.006 290.733 628.082 292.015C621.544 292.026 622.803 292.718 620.774 286.193C619.214 281.172 617.437 275.615 615.313 270.757C613.197 265.919 609.243 260.683 606.537 256.047C601.773 247.886 608.294 241.426 615.161 238.498Z"/><path fill="white" d="M660.375 251.487C661.423 252.974 665.682 287.607 666.264 291.77L658.646 291.741L653.201 291.532C656.82 278.404 653.203 273.401 654.115 260.503C654.43 256.043 657.013 253.95 660.375 251.487Z"/><path fill="white" d="M648.683 215.308C652.783 215.833 659.693 216.271 661.293 220.361C660.918 223.626 658.89 225.207 656.645 227.653C654.412 229.813 652.379 232.595 649.306 230.608C647.17 226.969 647.825 219.262 648.683 215.308Z"/><path fill="white" d="M531.073 284.015C535.198 283.832 536.784 284.191 538.663 288.149C538.794 289.87 538.759 289.747 537.857 291.241C535.928 292.496 535.318 292.073 532.735 292.098C529.621 292.199 528.092 292.836 525.979 290.192C525.328 286.388 528.057 285.399 531.073 284.015Z"/><path fill="#015B6A" d="M156.337 384.065C162.443 384.063 185.639 383.394 190.048 384.672C193.657 387.549 202.3 412.548 204.421 418.046C210.835 434.462 217.147 450.918 223.357 467.413C226.561 475.983 229.58 484.677 233.102 493.134C234.179 495.72 235.188 498.585 233.552 501.072C230.763 502.462 211.039 501.671 206.528 501.989C195.99 502.734 199.408 489.091 194.456 484.229C193.332 483.125 191.565 483.479 189.75 483.487L151.961 483.498C146.137 502.945 148.105 502.374 127.468 501.77C124.208 501.675 113.975 502.455 111.721 500.34C111.375 498.759 111.33 497.997 111.878 496.477C119.164 476.273 127.6 456.256 134.937 436.116C139.235 424.066 143.604 412.042 148.045 400.045C149.623 395.751 151.312 391.002 152.962 386.703C153.464 385.395 155.066 384.692 156.337 384.065Z"/><path fill="white" d="M172.736 429.234C174.451 430.695 181.471 451.63 182.872 455.548L173.375 455.531L163.599 455.462C166.781 446.687 169.626 437.992 172.736 429.234Z"/><path fill="#015B6A" d="M31.1819 384.446C37.9609 383.836 46.7213 384.316 53.6652 384.261C81.402 384.043 112.417 380.851 122.519 413.839C126.066 425.048 124.887 437.219 119.253 447.538C112.678 459.735 103.878 464.91 91.0796 468.677C83.2063 470.182 72.7142 470.034 64.4062 470.311C64.3824 478.271 64.3948 486.256 64.6461 494.17C64.7793 498.362 64.1424 501.679 59.3895 501.918C56.4983 502.064 53.3853 501.784 50.4789 501.746L30.9892 501.594C30.3795 475.278 31.3976 447.745 31.016 421.289C30.9342 415.618 30.4964 387.576 31.1819 384.446Z"/><path fill="white" d="M64.3936 415.909C70.5126 415.826 81.8647 414.577 86.6872 418.598C92.4861 423.432 92.0015 431.198 87.7494 436.858C81.6739 441.862 72.1223 440.632 64.3338 440.55L64.3936 415.909Z"/><path fill="#3C2D5B" d="M567.592 384.56C580.632 384.075 596.152 384.712 609.406 384.455C615.793 384.33 639.175 384.117 643.39 385.175C644.718 386.567 645.159 387.914 645.439 389.812C645.864 392.695 645.931 411.506 644.522 412.882C641.167 416.156 606.105 414.62 599.525 414.136L599.516 426.544C605.73 426.517 636.426 425.599 639.6 427.742C640.955 430.546 641.332 452.697 639.205 455.037C635.148 456.552 606.236 455.947 599.48 455.956L599.498 467.125C599.449 469.075 598.932 470.74 601.132 471.076C609.958 472.423 642.545 468.933 648.384 472.41C649.682 474.404 649.71 499.026 648.263 501.063C645.857 501.987 620.97 502.235 617.77 501.781C608.523 500.469 574.868 503.854 567.709 501.252C565.365 498.447 566.113 484.683 566.109 480.258L566.1 445.801L566.05 407.327C566.045 402.243 565.174 387.994 567.592 384.56Z"/><path fill="#31244C" d="M945.235 383.193C960.793 380.744 980.694 385.51 992.445 396.307C990.135 400.157 977.928 416.567 974.774 418.966C971.907 419.826 962.28 413.923 956.773 412.815C951.854 411.826 938.267 410.809 939.143 419.429C939.98 427.666 966.411 428.551 973.039 431.609C978.294 434.034 984.557 435.754 988.828 440.622C1001.69 453.61 1000.27 478.236 987.143 490.595C974.96 502.064 960.562 503.137 944.876 502.874C931.041 501.686 909.455 496.356 901.221 484.034C903.901 479.455 916.066 463.8 920.176 460.23C929.868 467.525 932.844 471.205 945.595 472.803C962.204 474.883 973.614 464.4 950.685 459.891C930.003 455.562 905.029 447.858 905.021 422.403C905.013 397.358 921.478 385.732 945.235 383.193Z"/><path fill="#3C2D5B" d="M506.751 382.18C526.33 380.15 547.226 385.577 560.474 400.82C556.865 406.96 546.37 417.065 541.544 422.662C535.279 429.929 526.76 415.044 516.097 414.935C498.76 414.756 486.273 425.7 485.776 443.538C485.052 464.072 506.411 480.287 525.26 469.793C533.274 465.3 538.213 455.687 545.561 465.848C546.831 467.603 549.488 470.132 551.081 471.804C555.235 476.117 558.275 478.843 560.877 484.17C551.448 495.944 538.678 501.763 524.01 503.875C489.243 508.772 457.376 489.839 452.741 453.536C448.1 417.193 469.793 386.627 506.751 382.18Z"/><path fill="#015B6A" d="M218.39 384.571C225.513 383.912 243.945 384.192 251.35 384.51C253.437 388.056 257.837 400.558 259.42 404.792C264.52 418.622 269.7 432.422 274.96 446.191C280.168 433.686 284.715 419.825 289.987 407.237C292.402 401.469 295.788 389.623 299.224 385.34C300.254 384.718 302.337 384.17 303.466 384.323C308.952 385.068 329.504 382.995 332.76 385.976C333.294 389.842 320.488 420.308 318.014 426.627C314.411 436.353 292.368 496.844 288.203 500.813C283.715 502.288 265.068 502.138 260.027 501.486C256.795 497.424 250.787 479.18 248.49 473.081C241.852 455.655 235.337 438.182 228.944 420.665C226.345 413.548 223.706 406.447 221.025 399.361C219.682 395.788 218.149 391.95 217.063 388.293C216.558 386.594 217.463 385.886 218.39 384.571Z"/><path fill="#3C2D5B" d="M707.569 447.022C711.134 437.776 727.5 389.129 730.85 385.509C735.805 383.519 755.338 384.837 761.792 384.633C762.966 384.595 764.094 385.475 764.852 386.44C765.338 389.642 752.093 421.431 750.01 426.75C741.724 449.128 733.315 471.489 725.122 493.897C724.367 495.962 722.241 501.122 720.49 501.372C715.835 502.037 695.303 502.449 692.247 501.105C691.044 499.597 690.014 497.574 689.361 495.75C676.433 459.625 662.245 423.964 648.457 388.205C648.025 387.086 649.432 385.398 650.109 384.602C656.561 384.565 678.431 383.743 683.139 385.398C687.113 389.871 691.528 404.636 693.889 411.073C698.383 423.081 702.943 435.064 707.569 447.022Z"/><path fill="#31244C" d="M813.656 384.556C830.796 384.255 848.579 385.042 865.949 384.855C875.284 385.141 885.947 384.223 895.104 385.162C898.965 385.558 897.827 409.851 896.543 413.001C893.497 414.937 875.74 414.065 870.721 414.006L870.485 478.125C870.418 483.588 871.144 495.015 869.988 499.199C868.872 503.243 841.336 502.357 838.761 500.663C837.29 497.224 837.988 424.609 837.994 414.497C833.823 414.314 814.326 414.91 812.469 413.053C810.385 407.96 811.291 393.657 811.501 387.514C811.556 385.919 812.597 385.385 813.656 384.556Z"/><path fill="#303C59" d="M338.568 384.534C338.973 384.503 339.378 384.482 339.784 384.471C344.438 384.34 365.415 383.495 367.874 385.78C369.527 391.581 368.961 412.8 368.959 420.517L368.957 472.589C374.983 472.693 404.876 471.315 407.733 474.161C409.794 479.35 407.879 488.475 408.781 494.289C409.231 497.191 408.581 499.765 406.19 501.616C385.796 502.298 364.844 501.201 344.39 501.735C342.569 501.783 338.92 501.9 337.551 500.802C334.697 496.481 337.717 404.48 336.12 392.482C335.662 389.036 336.112 386.943 338.568 384.534Z"/><path fill="#303C59" d="M413.177 384.546C419.871 384.115 435.665 383.622 441.84 384.635C442.583 384.756 443.906 384.928 444.304 385.609C445.383 387.456 445.353 391.003 445.426 393.16C445.794 404.104 446.062 497.029 445.25 499.389C444.8 500.7 444.134 501.038 442.983 501.697C437.256 501.747 416.229 502.491 412.38 500.715C410.496 493.982 411.812 466.661 411.792 458.114L411.564 412.802C411.547 407.206 410.644 388.722 413.177 384.546Z"/><path fill="#31244C" d="M772.539 384.555C777.772 384.508 797.546 383.978 801.434 384.941C803 386.593 803.216 390.664 803.22 392.957C803.266 421.007 803.135 449.06 803.367 477.109C803.426 484.157 803.787 491.279 803.3 498.302C803.18 500.035 802.594 500.674 801.458 501.848C796.156 502.002 775.011 502.689 771.692 500.709C770.998 498.356 770.781 495.799 770.764 493.347C770.534 458.428 770.482 423.496 770.536 388.576C770.54 386.33 771.013 386.033 772.539 384.555Z"/></svg>