<svg width="993" height="144" viewBox="0 0 993 144" fill="none" xmlns="http://www.w3.org/2000/svg">
<path d="M622.687 13.0185L622.629 13.6972C622.155 19.6347 624.876 43.8557 617.195 43.5976C606.125 43.2267 594.59 42.9963 583.508 42.8505L583.559 53.4892C593.422 53.2613 611.394 52.3647 620.676 53.206C620.635 59.1814 620.193 74.2819 621.082 79.7363L620.716 83.874C621.897 84.7063 625.635 87.4391 626.483 87.2968C629.171 86.8442 631.036 85.7636 632.557 84.2939L632.555 84.2959C631.035 85.7652 629.169 86.8453 626.482 87.2978C625.634 87.4407 621.894 84.7069 620.714 83.875C614.998 87.5539 592.017 85.69 583.485 85.8252L583.481 96.5273C591.514 96.3935 631.667 95.1896 636.386 97.3584C638.86 100.878 638.977 124.775 636.917 128.548C631.922 130.621 582.712 129.485 573.406 129.473C565.668 129.34 551.639 131.045 544.347 127.678C543.56 127.315 543.42 123.798 543.411 122.764C543.081 86.4848 543.219 50.17 543.226 13.8925C543.226 11.9002 543.684 11.9383 544.928 10.583C547.127 9.80263 549.174 9.51819 551.498 9.40425C558.592 9.05714 618.47 8.77651 621.2 10.0722C622.146 10.5212 622.354 12.0658 622.687 13.0185ZM634.555 81.9384C634.254 82.3527 633.947 82.7529 633.628 83.1347C633.947 82.7529 634.254 82.3527 634.555 81.9384ZM640.655 73.4589C640.028 74.1428 639.462 74.8347 638.937 75.5234C639.462 74.8347 640.028 74.1428 640.655 73.4589ZM647.335 68.249C645.865 69.0562 644.593 69.92 643.475 70.8164C644.593 69.9199 645.864 69.0554 647.334 68.248L647.335 68.249Z" fill="#3C2D5B"/>
<path d="M709.604 8.17161C715.414 8.16631 747.637 7.39919 750.548 9.36131C750.932 13.8168 702.714 118.975 696.569 130.848L673.434 130.897C665.073 109.874 656.371 88.9884 647.334 68.2477C644.602 61.4895 642.024 54.9778 638.898 48.3839C638.152 45.3142 625.13 17.2098 623.121 12.7768L623.235 10.2874C625.787 8.72936 658.152 9.57727 663.47 9.64749C666.226 16.1062 668.598 22.3238 671.085 28.8793C675.851 40.7607 680.416 52.7202 684.779 64.7553C692.447 47.8778 701.79 23.7997 709.604 8.17161Z" fill="#3C2D5B"/>
<path d="M800.04 8.49822C811.321 7.9113 824.577 8.23587 835.999 8.25575L895.56 8.35642L895.421 41.2701C886.826 41.233 878.231 41.1045 869.639 40.8832L870.101 129.019L856.825 129.138C849.759 128.763 836.846 129.421 829.206 129.501L828.612 118.762C829.018 93.8924 828.463 67.933 828.556 42.9169C819.548 42.8758 809.086 43.0891 800.2 42.7182C799.816 34.4735 799.559 16.8118 800.04 8.49822Z" fill="#31244C"/>
<path d="M753.955 128.404C752.989 104.08 754.218 76.7608 753.937 52.2243C753.844 44.0618 753.612 17.2319 754.567 10.2247C757.6 7.21856 788.604 7.12186 791.881 10.4433C792.526 18.6243 792.111 30.2103 792.052 38.6457L791.876 82.9625L791.743 113.519C791.726 117.65 791.987 126.475 791.322 130.164C781.637 131.3 766.732 130.962 756.57 130.924C754.427 129.762 755.293 130.544 753.955 128.404Z" fill="#31244C"/>
<path d="M942.881 6.57798C957.185 4.15745 974.682 9.75237 987.488 15.6931C985.001 26.6418 982.407 36.3411 978.576 46.9029C972.459 43.2569 945.52 31.1238 941.823 42.042C942.496 49.758 956.73 52.1799 963.042 54.2308C979.938 59.7183 990.873 66.083 992.198 85.6129C994.207 115.228 973.578 129.359 946.737 130.917C930.251 131.164 915.332 129.339 901.436 119.853C903.496 108.526 906.777 98.4508 910.41 87.5922C917.849 93.0149 925.567 97.2359 934.739 98.8284C939.225 99.6061 952.071 99.2881 952.844 93.2799C946.802 81.7336 905.936 81.8423 903.443 54.97C900.78 26.2681 915.253 10.3062 942.881 6.57798Z" fill="#31244C"/>
<path d="M35.9519 9.19102C43.811 9.19499 55.4163 8.95356 62.9959 10.0797C68.4143 10.8322 73.6832 12.4244 78.6101 14.8023C111.753 30.9484 110.13 76.3608 77.8103 92.2262C74.4333 93.8836 70.9859 94.8991 67.3943 95.9947C58.6026 97.7051 49.1666 97.4629 40.196 97.5172C40.2954 108.441 40.3067 119.363 40.2312 130.285L0.47632 130.52C0.476314 90.9769 -0.457426 48.4657 0.289796 9.22325L35.9519 9.19102ZM63.074 48.107C57.6036 42.7321 47.3761 43.8244 40.2351 43.941L40.1521 61.3316L40.3972 63.2525C43.8459 65.5485 56.9477 64.0816 60.7156 62.1539C63.8289 58.5093 67.2903 52.2511 63.074 48.107Z" fill="#015B6A"/>
<path d="M145.019 7.33594C151.14 12.287 203.948 116.922 210.777 130.439C182.705 131.09 151.289 130.339 122.966 130.262C127.332 120.274 132.58 110.176 137.486 100.397L157.914 100.442L153.854 92.6891C150.329 85.9469 147.866 79.0576 144.041 72.5207C133.869 91.147 125.118 111.311 114.589 130.225L74.6074 130.215C95.2131 90.4885 121.598 46.1201 145.019 7.33594Z" fill="#015B6A"/>
<path d="M520.025 83.3082C523.051 87.4921 537.673 116.9 537.433 121.276C535.008 125.06 530.455 126.109 526.347 127.331C490.218 138.081 445.504 125.692 435.052 85.0106C430.782 69.0327 433.084 52.0122 441.445 37.742C453.392 17.6306 476.107 6.85414 499.167 7.50862C511.942 7.87164 525.926 8.77918 537.156 15.4472C535.628 22.1669 529.743 34.9638 526.906 42.0691C527.285 43.643 525.143 54.3824 524.684 55.1601C522.65 56.2239 523.717 56.0292 521.351 55.6277L520.4 54.8249C508.733 44.2472 496.39 35.931 480.844 48.4178C470.178 57.1646 469.955 79.5323 480.186 88.4685C495.002 101.411 508.615 95.2506 520.025 83.3082Z" fill="#3C2D5B"/>
<path d="M164.723 9.08594L206.543 9.22903C214.237 27.2976 221.149 45.8152 228.885 63.795C237.119 45.8788 244.612 27.2949 252.27 9.11246C266.227 9.07536 280.185 9.19458 294.138 9.46883C289.536 22.1412 274.554 51.5214 268.041 64.1925C257.21 84.9703 247.31 106.319 236.674 127.202C233.793 132.856 231.032 138.555 227.581 143.888C216.309 118.822 205.03 94.1476 192.928 69.4468C183.141 49.4745 174.729 29.0199 164.723 9.08594Z" fill="#303C59"/>
<path d="M299.424 9.3251C311.206 9.16346 322.991 9.17934 334.772 9.3741L334.56 93.258C349.735 93.1772 364.911 93.1812 380.086 93.2726C380.117 98.3296 380.843 126.042 379.247 128.715L377.541 128.967L296.796 129.399C296.711 117.624 296.067 12.5922 297.601 9.57945L299.424 9.3251Z" fill="#303C59"/>
<path d="M386.828 9.53906L425.3 9.60133L425.156 128.843L386.836 128.924L386.828 9.53906Z" fill="#303C59"/>
</svg>
